<?xml version="1.0" encoding="utf-8"?>
<!-- Generator: Adobe Illustrator 19.2.0, SVG Export Plug-In . SVG Version: 6.00 Build 0)  -->
<svg version="1.1" id="Foreground" xmlns="http://www.w3.org/2000/svg" xmlns:xlink="http://www.w3.org/1999/xlink" x="0px" y="0px"
	 viewBox="0 0 378.5 81.3" style="enable-background:new 0 0 378.5 81.3;" xml:space="preserve">
<style type="text/css">
	.st0{fill-rule:evenodd;clip-rule:evenodd;fill:#EB1C24;}
	.st1{fill-rule:evenodd;clip-rule:evenodd;fill:#2C3C94;}
</style>
<g>
	<g>
		<g>
			<path class="st0" d="M50.5,47.7v-0.2c0-11.1-7.3-15.8-20.2-19.1c-11-2.8-13.8-4.2-13.8-8.4v-0.2c0-3.1,2.8-5.6,8.2-5.6
				c5.4,0,10.9,2.4,16.6,6.3l7.3-10.6c-6.5-5.2-14.4-8.1-23.7-8.1c-13,0-22.3,7.7-22.3,19.2v0.2c0,12.7,8.3,16.2,21.2,19.5
				c10.7,2.7,12.9,4.6,12.9,8.1V49c0,3.7-3.5,6-9.2,6c-7.3,0-13.3-3-19.1-7.7L0,57.2c7.7,6.8,17.4,10.2,27.1,10.2
				C40.8,67.5,50.5,60.3,50.5,47.7z"/>
			<path class="st0" d="M111.4,49v-0.2c0-8.6-4.6-12.9-11.9-15.7c4.6-2.6,8.4-6.6,8.4-13.8v-0.2c0-10-8-16.5-21.1-16.5H57.1v63.8
				h30.4C101.9,66.5,111.4,60.7,111.4,49z M93.9,21.8c0,4.7-3.9,6.7-10.1,6.7H70.8V15h13.9c5.9,0,9.2,2.4,9.2,6.6V21.8z M97.4,47.3
				c0,4.7-3.7,6.9-9.9,6.9H70.8v-14H87c7.2,0,10.4,2.6,10.4,6.9V47.3z"/>
			<path class="st1" d="M176.1,34.6v-0.2c0-18-13.9-31.7-33.9-31.7h-24.9v63.8h24.9C162.3,66.5,176.1,52.6,176.1,34.6z M161.5,34.8
				c0,11.3-7.7,19.1-19.2,19.1h-10.8V15.4h10.8c11.5,0,19.2,7.9,19.2,19.2V34.8z"/>
		</g>
		<path class="st1" d="M196.4,12.3V0h-14.6v12.3H196.4z M196.1,66.5V17.7h-13.9v48.9H196.1z"/>
		<path class="st1" d="M252.6,55.5c0,18.4-9.1,25.8-27.3,25.8c-6,0-11.8-1-16.9-3V65.9c5,2.8,10.1,4.4,16.5,4.4
			c9.5,0,13.9-4.6,13.9-13.3v-2.4c-4.1,4.9-8.6,7.9-16,7.9c-11.4,0-21.7-8.3-21.7-22.8v-0.2c0-14.6,10.5-22.8,21.7-22.8
			c7.6,0,12,3.2,15.8,7.3v-6.4h13.9V55.5z M239,39.7c0,6.7-5.2,11.3-11.9,11.3c-6.7,0-11.9-4.6-11.9-11.3v-0.2
			c0-6.7,5.1-11.3,11.9-11.3c6.7,0,11.9,4.6,11.9,11.3V39.7z"/>
		<path class="st1" d="M274.3,12.3V0h-14.6v12.3H274.3z M273.9,66.5V17.7h-13.9v48.9H273.9z"/>
		<path class="st1" d="M309.8,64.5V53.4c-2,1.1-4.3,1.7-6.8,1.7c-3.1,0-4.5-1.5-4.5-4.7V29.5H310V17.7h-11.5V5.2h-13.9v12.5h-5.8
			v11.9h5.8v23.2c0,11.3,5.7,14.7,14.2,14.7C303.5,67.4,306.9,66.3,309.8,64.5z"/>
		<path class="st1" d="M357.6,66.5h-13.4v-5.3c-3.4,3.7-8,6.2-14.8,6.2c-9.2,0-16.8-5.3-16.8-15v-0.2c0-10.7,8.1-15.6,19.7-15.6
			c4.9,0,8.5,0.8,11.9,2v-0.8c0-5.7-3.6-8.9-10.5-8.9c-5.3,0-9.1,1-13.6,2.7l0-0.3V19.7c4.3-1.6,9-2.6,15.6-2.6
			c15.1,0,21.8,7.8,21.8,21.1V66.5z M344.5,49.3c0,5-4.4,8.6-10.8,8.6c-4.5,0-7.6-2.2-7.6-5.9v-0.2c0-4.4,3.6-6.7,9.6-6.7
			c3.4,0,6.5,0.7,8.8,1.8V49.3z"/>
		<rect x="364.6" class="st1" width="13.9" height="66.5"/>
	</g>
</g>
</svg>
