<svg xmlns="http://www.w3.org/2000/svg" viewBox="0 0 58.07 50"><defs><style>.a{fill:#d44c30;}.b{fill:#d4a530;}.c{fill:#226a85;}.d{fill:#6bbad9;}</style></defs><title>mobileLogo</title><path class="a" d="M25.5,25.39V20.86a.79.79,0,0,1-.34-.08L0,27.52V38l21.54-5.77Z"/><path class="b" d="M32.52,19.14a.83.83,0,0,1,.83.86.82.82,0,0,1-.89.86v4.53l2,3.42,23.62-6.33V12L31.26,19.14Z"/><path class="c" d="M32.82,33.79A1.17,1.17,0,0,0,31.63,35,1.19,1.19,0,1,0,34,35,1.17,1.17,0,0,0,32.82,33.79Z"/><path class="c" d="M43,43.49h0L40.9,40,34.45,28.81l-2-3.42V20.86a.82.82,0,0,0,.89-.86.83.83,0,0,0-.83-.86h-7a.88.88,0,0,0-.89.86.86.86,0,0,0,.49.78.79.79,0,0,0,.34.08v4.53l-4,6.88L17.11,40l-2,3.52h0A4.35,4.35,0,0,0,18.87,50H39.21A4.34,4.34,0,0,0,43,43.49ZM29.13,30.57H29a2,2,0,0,1-.65-.13,2,2,0,0,1-1.29-1.85,2,2,0,0,1,1.93-2h.06a2,2,0,0,1,2,2,2,2,0,0,1-.44,1.24A2,2,0,0,1,29.13,30.57ZM34.37,35a1.56,1.56,0,0,1-3.11,0,1.56,1.56,0,0,1,1.54-1.55h0A1.56,1.56,0,0,1,34.37,35Z"/><path class="c" d="M29.09,27H29a1.5,1.5,0,0,0-1.46,1.53A1.52,1.52,0,0,0,29,30.11h.06a1.53,1.53,0,0,0,1.52-1.54A1.5,1.5,0,0,0,29.09,27Z"/><polygon class="d" points="23.2 11.14 24.24 11.14 24.24 15.83 24.81 15.83 24.81 10.57 23.57 10.57 23.2 11.14"/><path class="d" d="M31.51,18.56A2.61,2.61,0,1,0,29,15.16a2.61,2.61,0,0,0,2.47,3.41Zm0-4.64a2,2,0,1,1-2,2A2,2,0,0,1,31.51,13.93Z"/><path class="d" d="M23.7,0a3.19,3.19,0,1,0,3.19,3.19A3.19,3.19,0,0,0,23.7,0Zm0,5.8a2.61,2.61,0,1,1,2.61-2.61A2.61,2.61,0,0,1,23.7,5.8Z"/><path class="d" d="M29.09,26.6H29a2,2,0,0,0-1.93,2,2,2,0,0,0,1.29,1.85,2,2,0,0,0,.65.13h.09a2,2,0,0,0,1.52-.74,2,2,0,0,0,.44-1.24A2,2,0,0,0,29.09,26.6Zm0,3.52H29a1.52,1.52,0,0,1-1.46-1.53A1.5,1.5,0,0,1,29,27.06h.06a1.5,1.5,0,0,1,1.52,1.54A1.53,1.53,0,0,1,29.09,30.12Z"/><path class="d" d="M32.83,33.45h0A1.56,1.56,0,0,0,31.26,35a1.56,1.56,0,0,0,3.11,0h0A1.56,1.56,0,0,0,32.83,33.45Zm0,2.75A1.19,1.19,0,0,1,31.63,35,1.19,1.19,0,1,1,34,35,1.19,1.19,0,0,1,32.82,36.2Z"/></svg>