<?xml version="1.0" encoding="utf-8"?>
<!-- Generator: Adobe Illustrator 19.0.0, SVG Export Plug-In . SVG Version: 6.00 Build 0)  -->
<svg version="1.1" id="Layer_1" xmlns="http://www.w3.org/2000/svg" xmlns:xlink="http://www.w3.org/1999/xlink" x="0px" y="0px"
	 viewBox="0 0 245 90.7" style="enable-background:new 0 0 245 90.7;" xml:space="preserve">
<style type="text/css">
	.st0{fill:#D55030;}
	.st1{fill:#939D68;}
	.st2{fill:#6DB8D8;}
	.st3{opacity:0.56;fill:#FFFFFF;}
	.st4{opacity:0.59;fill:#6DB8D8;}
	.st5{opacity:0.33;fill:#6DB8D8;}
	.st6{fill:#FFFFFF;}
</style>
<g id="XMLID_2048_">
	<g id="XMLID_2115_">
		<path id="XMLID_2116_" class="st0" d="M23.8,59c-3.6,0.4-6.8-1.6-8-5c-0.1-0.3,0-0.6,0.3-0.7l1.9-0.8c0.1-0.1,0.3-0.1,0.4,0
			c0.1,0.1,0.2,0.2,0.3,0.3c0.7,1.6,2.1,3.5,4.9,3.3c2.2-0.2,3.8-2.1,3.6-4.4c-0.2-2.1-1.7-2.6-3.9-3.1c-2.9-0.7-6.5-1.7-6.8-5.5
			c-0.3-3.2,2.1-5.9,5.5-6.2c2.3-0.2,4.8,1,6,3c0.1,0.2,0.1,0.6-0.2,0.7l-1.6,1c-0.1,0.1-0.3,0.1-0.4,0.1c-0.1,0-0.3-0.1-0.3-0.2
			c-0.7-1.2-1.9-1.8-3.2-1.7c-1.4,0.1-2.8,1.4-2.6,2.9c0.2,1.7,1.7,2.2,4.1,2.8c2.8,0.7,6.2,1.6,6.6,6C30.5,55.3,27.8,58.6,23.8,59z
			 M17,54.1c1.2,2.6,3.7,4.1,6.7,3.8c3.4-0.3,5.7-3,5.4-6.3c-0.4-3.6-3.1-4.4-5.8-5c-2.3-0.6-4.7-1.2-4.9-3.7
			c-0.2-2.2,1.7-3.9,3.6-4.1c1.6-0.2,3,0.5,4,1.7l0.7-0.5c-1-1.3-2.9-2.2-4.7-2c-2.8,0.3-4.8,2.4-4.5,5c0.3,3.1,3.3,3.8,6,4.5
			c1.9,0.4,4.4,1.1,4.7,4c0.3,2.8-1.7,5.3-4.6,5.6c-2.5,0.2-4.5-1-5.7-3.4L17,54.1z"/>
	</g>
	<g id="XMLID_2109_">
		<path id="XMLID_2110_" class="st0" d="M56.1,55.8c-6,0.6-10.7-3.6-11.4-10.1c-0.6-6.3,3.3-11.4,9.2-12c2.8-0.3,5.3,0.5,7.3,2.1
			c2.3,1.9,3.7,4.7,4,8.1c0,0.3-0.2,0.6-0.5,0.6l-16.9,1.7c0.3,2.1,1.2,3.8,2.6,5c1.5,1.3,3.5,1.8,5.7,1.6c2.8-0.3,5-2.1,6.2-4.9
			c0.1-0.1,0.2-0.2,0.3-0.3c0.1-0.1,0.3,0,0.4,0l1.7,0.8c0.3,0.1,0.4,0.4,0.3,0.7C63.5,53,60.3,55.4,56.1,55.8z M54.1,34.8
			c-5.3,0.5-8.8,5.2-8.2,10.8c0.6,5.8,4.9,9.6,10.2,9.1c3.6-0.4,6.4-2.3,7.8-5.5l-0.8-0.4c-1.4,3-3.9,4.8-6.9,5.1
			c-2.4,0.2-4.7-0.4-6.4-1.9c-1.8-1.5-2.8-3.7-3-6.3c0-0.3,0.2-0.5,0.5-0.6l16.9-1.7c-0.4-2.8-1.6-5.2-3.5-6.8
			C58.8,35.2,56.6,34.6,54.1,34.8z M62.6,42.9l-15.5,1.5c-0.1,0-0.3,0-0.4-0.1c-0.1-0.1-0.2-0.2-0.2-0.4c0-4.2,3.4-7.9,7.6-8.3
			c4.1-0.4,8,2.5,8.9,6.7c0,0.1,0,0.3-0.1,0.4C62.9,42.8,62.8,42.9,62.6,42.9z M47.6,43.3l14.3-1.4c-0.9-2.9-3.8-5.6-7.6-5.3
			C50.8,37,47.9,39.9,47.6,43.3z"/>
	</g>
	<g id="XMLID_2103_">
		<path id="XMLID_2104_" class="st0" d="M91.4,52.3c-6,0.6-10.7-3.6-11.4-10.1c-0.6-6.3,3.3-11.4,9.2-12c2.8-0.3,5.3,0.5,7.3,2.1
			c2.3,1.9,3.7,4.7,4,8.1c0,0.3-0.2,0.6-0.5,0.6l-16.9,1.7c0.3,2.1,1.2,3.8,2.6,5c1.5,1.3,3.5,1.8,5.7,1.6c2.8-0.3,5-2.1,6.2-4.9
			c0.1-0.1,0.2-0.2,0.3-0.3c0.1-0.1,0.3-0.1,0.4,0L100,45c0.3,0.1,0.4,0.4,0.3,0.7C98.7,49.5,95.5,51.9,91.4,52.3z M89.3,31.3
			c-5.3,0.5-8.8,5.2-8.2,10.8c0.6,5.8,4.9,9.6,10.2,9.1c3.6-0.4,6.3-2.3,7.8-5.5l-0.8-0.4c-1.4,3-3.9,4.8-6.9,5.1
			C89,50.7,86.7,50,85,48.6c-1.8-1.5-2.8-3.7-3-6.3c0-0.3,0.2-0.5,0.5-0.6L99.4,40c-0.4-2.8-1.6-5.2-3.5-6.8
			C94,31.7,91.8,31.1,89.3,31.3z M97.9,39.4l-15.5,1.5c-0.1,0-0.3,0-0.4-0.1c-0.1-0.1-0.2-0.2-0.2-0.4c0-4.2,3.4-7.9,7.6-8.3
			c4.1-0.4,8,2.5,8.9,6.7c0,0.1,0,0.3-0.1,0.4S98,39.4,97.9,39.4z M82.9,39.8l14.3-1.4c-0.9-2.9-3.8-5.6-7.6-5.3
			C86,33.5,83.2,36.4,82.9,39.8z"/>
	</g>
	<g id="XMLID_2096_">
		<path id="XMLID_2097_" class="st1" d="M146.2,47.1c-3.6,0.4-6.8-1.6-8-5c-0.1-0.3,0-0.6,0.3-0.7l1.9-0.8c0.1-0.1,0.3-0.1,0.4,0
			c0.1,0.1,0.2,0.2,0.3,0.3c0.7,1.6,2.1,3.5,4.9,3.3c2.2-0.2,3.8-2.1,3.6-4.4c-0.2-2.1-1.7-2.6-3.9-3.1c-2.9-0.7-6.5-1.7-6.8-5.5
			c-0.3-3.2,2.1-5.9,5.5-6.2c2.3-0.2,4.8,1,6,3c0.1,0.2,0.1,0.6-0.2,0.7l-1.6,1c-0.1,0.1-0.3,0.1-0.4,0.1c-0.1,0-0.3-0.1-0.3-0.2
			c-0.7-1.2-1.9-1.8-3.2-1.7c-1.4,0.1-2.8,1.4-2.6,2.9c0.2,1.7,1.7,2.2,4.1,2.8c2.8,0.7,6.2,1.6,6.6,6
			C152.9,43.5,150.2,46.7,146.2,47.1z M139.4,42.2c1.2,2.6,3.7,4.1,6.7,3.8c3.4-0.3,5.7-3,5.4-6.3c-0.4-3.6-3.1-4.4-5.8-5
			c-2.3-0.6-4.7-1.2-4.9-3.7c-0.2-2.2,1.7-3.9,3.6-4.1c1.6-0.2,3,0.5,4,1.7l0.7-0.5c-1-1.3-2.9-2.2-4.7-2c-2.8,0.3-4.8,2.4-4.5,5
			c0.3,3.1,3.3,3.8,6,4.5c1.9,0.4,4.4,1.1,4.7,4c0.3,2.8-1.7,5.3-4.6,5.6c-2.5,0.2-4.5-1-5.7-3.4L139.4,42.2z"/>
	</g>
	<g id="XMLID_2089_">
		<path id="XMLID_2091_" class="st1" d="M178.7,43.9c-6.1,0.6-10.9-3.7-11.5-10.1c-0.6-6.4,3.2-11.3,9.3-11.9
			c2.9-0.3,5.6,0.6,7.6,2.3l-0.2-2.1c0-0.3,0.2-0.6,0.5-0.6l2-0.2c0.3,0,0.6,0.2,0.6,0.5l2,20.1c0,0.3-0.2,0.6-0.5,0.6l-2,0.2
			c-0.3,0-0.6-0.2-0.6-0.5l-0.2-2.1C184.1,42.1,181.5,43.6,178.7,43.9z M176.6,22.9c-5.6,0.5-8.9,4.9-8.3,10.7
			c0.6,5.9,4.9,9.7,10.4,9.2c3-0.3,5.7-2.1,6.8-4.5c0.2-0.4,1.1-0.3,1.1,0.2l0.3,3.1l0.9-0.1l-1.9-19l-0.9,0.1l0.3,2.9
			c0,0.3-0.2,0.6-0.5,0.6c-0.2,0-0.4,0-0.5-0.2C182.4,23.7,179.6,22.6,176.6,22.9z M178.5,42c-5.5,0.5-8.9-4-9.4-8.5
			c-0.4-4.4,2.3-9.4,7.4-9.9c5-0.5,8.9,2.9,9.5,8C186.5,37.3,183.5,41.6,178.5,42z M176.6,24.7c-4.5,0.4-6.8,4.9-6.5,8.7
			c0.4,4,3.4,8,8.2,7.5c5.1-0.5,7-5,6.6-9.2C184.5,27.2,181.1,24.3,176.6,24.7z"/>
	</g>
	<g id="XMLID_2085_">
		<path id="XMLID_2086_" class="st1" d="M214.1,41.7c-0.2,0-0.4-0.4-0.5-0.6l-11.1-20.5c-0.1-0.2-0.1-0.4,0-0.6
			c0.1-0.2,0.2-0.3,0.4-0.3l2-0.2c0.2,0,0.4,0.1,0.5,0.3l8.1,14.7l5-17.1c0.1-0.2,0.2-0.4,0.5-0.4l0,0c0.2,0,0.4,0.1,0.5,0.3
			l8.3,15.7l5-15.9c0.1-0.2,0.2-0.4,0.5-0.4l2-0.2c0.2,0,0.4,0.1,0.5,0.2c0.1,0.1,0.1,0.3,0.1,0.5l-7,22.1c-0.1,0.2-0.2,0.4-0.5,0.4
			h0c-0.2,0-0.4-0.1-0.5-0.3l-8.2-15.5l-5,17.1C214.5,41.2,214.4,41.7,214.1,41.7C214.1,41.7,214.1,41.7,214.1,41.7z M219.4,21.9
			c0.2,0,0.4,0.1,0.5,0.3l8.2,15.5l6.4-20.1l-0.8,0.1l-5.2,16.8c-0.1,0.2-0.2,0.4-0.5,0.4c-0.2,0-0.4-0.1-0.5-0.3l-8.3-15.7l-5,17
			c-0.1,0.2-0.2,0.4-0.5,0.4c-0.2,0-0.4-0.1-0.5-0.3l-8.5-15.5l-0.8,0.1l10.1,18.5l5-16.8C219,22.1,219.2,21.9,219.4,21.9
			L219.4,21.9z"/>
	</g>
	<path id="XMLID_2084_" class="st2" d="M139.3,60.3l-14.3-25c0-0.1,0-0.1,0-0.2v-5.5h-0.2c0.7,0,1.2-0.8,1.2-1.5
		c0-0.7-0.5-1.5-1.2-1.5h-9.6c-0.7,0-1.2,0.8-1.2,1.5c0,0.7,0.5,1.5,1.2,1.5H115v5.5c0,0.1,0,0.1,0,0.2l-14.4,25c-1,1.8-1,4.3,0,6.1
		c1,1.8,2.9,3.3,4.9,3.3h28.8c2,0,3.9-1.5,4.9-3.3C140.3,64.6,140.3,62.1,139.3,60.3z"/>
	<path id="XMLID_2080_" class="st3" d="M114.5,43.7h0.3h0.2v3.9l0,0v-3.9H114.5z"/>
	<path id="XMLID_2078_" class="st3" d="M122.1,30.7h0.3h0.6v3.7l0,0v-3.7H122.1z"/>
	<path id="XMLID_2074_" class="st4" d="M112.1,14.7h0.5h2.4v8h-1v-8H112.1z"/>
	<path id="XMLID_2066_" class="st3" d="M127.5,48.4c0,1.2-1,2.1-2.2,2.1c-1.2,0-2.2-0.9-2.2-2.1c0-1.2,1-2.1,2.2-2.1
		C126.5,46.2,127.5,47.2,127.5,48.4z M127,48.4c0-0.9-0.7-1.7-1.6-1.7c-1,0-1.6,0.8-1.6,1.7c0,0.9,0.8,1.7,1.6,1.7
		S127,49.3,127,48.4z"/>
	<path id="XMLID_2062_" class="st3" d="M123,39.5c0,1.6-1.2,2.7-2.8,2.7c-1.5,0-2.8-1.2-2.8-2.7c0-1.5,1.2-2.7,2.8-2.7
		C121.7,36.8,123,38,123,39.5z M122.3,39.5c0-1.2-0.9-2.1-2.1-2.1c-1.2,0-2.1,1-2.1,2.1c0,1.2,1,2.1,2.1,2.1S122.3,40.7,122.3,39.5z
		"/>
	<path id="XMLID_2056_" class="st4" d="M126.7,22.4c0,1.8-1.4,3.1-3.2,3.1c-1.7,0-3.2-1.3-3.2-3.1c0-1.7,1.4-3.1,3.2-3.1
		C125.3,19.3,126.7,20.7,126.7,22.4z M126,22.4c0-1.3-1-2.4-2.4-2.4c-1.4,0-2.4,1.1-2.4,2.4c0,1.4,1.1,2.4,2.4,2.4
		S126,23.8,126,22.4z"/>
	<path id="XMLID_2051_" class="st5" d="M117.1,4.3c0,2.5-2,4.3-4.4,4.3c-2.4,0-4.4-1.9-4.4-4.3c0-2.4,2-4.3,4.4-4.3
		C115.2,0,117.1,2,117.1,4.3z M116.1,4.3c0-1.8-1.4-3.4-3.3-3.4c-2,0-3.3,1.5-3.3,3.4c0,1.9,1.5,3.4,3.3,3.4
		C114.6,7.7,116.1,6.2,116.1,4.3z"/>
	<g id="XMLID_2049_">
		<path id="XMLID_184_" class="st6" d="M108,64.5v-6.4h1.4v5.2h2.3v1.2H108z"/>
		<path id="XMLID_186_" class="st6" d="M118.2,64.5l-0.5-1.6h-2l-0.5,1.6h-1.5l2.3-6.4h1.4l2.3,6.4H118.2z M116.9,60.1
			c0-0.1-0.1-0.2-0.1-0.3c0-0.1,0-0.1,0-0.2c0,0.1,0,0.1,0,0.2c0,0,0,0.1,0,0.2s0,0.1,0,0.2l-0.5,1.6h1.2L116.9,60.1z"/>
		<path id="XMLID_189_" class="st6" d="M126.5,62.7c0,0.3-0.1,0.5-0.2,0.8c-0.1,0.2-0.3,0.4-0.5,0.6c-0.2,0.2-0.5,0.3-0.7,0.4
			s-0.6,0.1-1,0.1h-2.4v-6.4h2.2c0.3,0,0.6,0,0.9,0.1c0.3,0.1,0.5,0.2,0.7,0.3c0.2,0.1,0.3,0.3,0.5,0.5c0.1,0.2,0.2,0.5,0.2,0.7
			c0,0.3-0.1,0.6-0.3,0.9c-0.2,0.2-0.4,0.4-0.7,0.5c0.2,0,0.4,0.1,0.5,0.2c0.2,0.1,0.3,0.2,0.4,0.3c0.1,0.1,0.2,0.3,0.3,0.5
			C126.5,62.3,126.5,62.5,126.5,62.7z M124.8,60c0-0.3-0.1-0.5-0.3-0.6s-0.4-0.1-0.7-0.1h-0.7v1.5h0.7
			C124.5,60.7,124.8,60.5,124.8,60z M125.1,62.6c0-0.2-0.1-0.4-0.2-0.5c-0.2-0.1-0.4-0.2-0.7-0.2h-1v1.4h1c0.3,0,0.6-0.1,0.7-0.2
			C125,63,125.1,62.8,125.1,62.6z"/>
		<path id="XMLID_193_" class="st6" d="M132.8,62.7c0,0.6-0.2,1.1-0.6,1.4c-0.4,0.3-1,0.5-1.7,0.5c-0.4,0-0.8-0.1-1.2-0.2
			s-0.7-0.3-1-0.6l0.7-1c0.2,0.2,0.4,0.3,0.7,0.4c0.3,0.1,0.5,0.2,0.8,0.2c0.3,0,0.5-0.1,0.7-0.2s0.2-0.3,0.2-0.4
			c0-0.2-0.1-0.3-0.2-0.4c-0.1-0.1-0.3-0.2-0.5-0.3c-0.2-0.1-0.4-0.2-0.6-0.2s-0.4-0.1-0.5-0.2c-0.2-0.1-0.3-0.2-0.4-0.3
			c-0.1-0.1-0.3-0.2-0.4-0.4c-0.1-0.1-0.2-0.3-0.2-0.5c-0.1-0.2-0.1-0.4-0.1-0.7c0-0.3,0.1-0.6,0.2-0.8c0.1-0.2,0.3-0.4,0.5-0.6
			c0.2-0.1,0.5-0.3,0.7-0.3s0.6-0.1,0.8-0.1c0.3,0,0.6,0,1,0.1s0.6,0.2,0.9,0.4l-0.6,1c-0.1-0.1-0.3-0.2-0.5-0.3
			c-0.2-0.1-0.4-0.1-0.7-0.1c-0.2,0-0.3,0-0.4,0.1c-0.1,0-0.2,0.1-0.3,0.2c-0.1,0.1-0.1,0.1-0.2,0.2c0,0.1,0,0.1,0,0.2
			c0,0.1,0,0.3,0.1,0.4c0.1,0.1,0.2,0.2,0.4,0.3s0.3,0.2,0.5,0.2c0.2,0.1,0.4,0.1,0.6,0.2c0.2,0.1,0.3,0.2,0.5,0.2
			c0.2,0.1,0.3,0.2,0.4,0.3c0.1,0.1,0.2,0.3,0.3,0.5C132.7,62.2,132.8,62.4,132.8,62.7z"/>
	</g>
</g>
<g id="XMLID_183_">
</g>
<g id="XMLID_195_">
</g>
<g id="XMLID_196_">
</g>
<g id="XMLID_197_">
</g>
<g id="XMLID_198_">
</g>
<g id="XMLID_199_">
</g>
</svg>
