<?xml version="1.0" encoding="utf-8"?>
<!-- Generator: Adobe Illustrator 19.0.0, SVG Export Plug-In . SVG Version: 6.00 Build 0)  -->
<svg version="1.1" id="Layer_1" xmlns="http://www.w3.org/2000/svg" xmlns:xlink="http://www.w3.org/1999/xlink" x="0px" y="0px"
	 viewBox="0 0 21.2 20.2" style="enable-background:new 0 0 21.2 20.2;" xml:space="preserve">
<style type="text/css">
	.st0{fill:#CDCCCC;}
</style>
<g id="XMLID_3370_">
	<path id="XMLID_3373_" class="st0" d="M5.4,2.6c0,1.1-0.8,2-2.1,2c-1.2,0-2-0.9-2-2c0-1.1,0.8-2,2.1-2C4.6,0.7,5.4,1.5,5.4,2.6z
		 M1.7,19.2v-13h4v13H1.7z"/>
	<path id="XMLID_3371_" class="st0" d="M7.7,10.2c0-1.6-0.1-2-0.2-4h3.4l0.2,2h0.1C11.7,7.2,13,6,15.1,6c2.6,0,4.6,1.6,4.6,5.3v7.8
		h-4v-7.4c0-1.6-0.6-2.7-2-2.7c-1.1,0-1.7,0.7-1.9,1.5c-0.1,0.3-0.1,0.6-0.1,1v7.7h-4V10.2z"/>
</g>
</svg>
