<?xml version="1.0" encoding="utf-8"?>
<!-- Generator: Adobe Illustrator 19.0.0, SVG Export Plug-In . SVG Version: 6.00 Build 0)  -->
<svg version="1.1" id="Layer_1" xmlns="http://www.w3.org/2000/svg" xmlns:xlink="http://www.w3.org/1999/xlink" x="0px" y="0px"
	 viewBox="0 0 19.8 17.4" style="enable-background:new 0 0 19.8 17.4;" xml:space="preserve">
<style type="text/css">
	.st0{fill:#CDCCCC;}
</style>
<path id="XMLID_3425_" class="st0" d="M19.8,2.5C19,2.8,18.3,3,17.4,3.1c0.8-0.5,1.5-1.3,1.8-2.2c-0.8,0.5-1.7,0.8-2.6,1
	c-0.7-0.8-1.8-1.3-3-1.3c-2.2,0-4.1,1.8-4.1,4.1c0,0.3,0,0.6,0.1,0.9C6.4,5.4,3.4,3.8,1.4,1.3C1,1.9,0.8,2.6,0.8,3.3
	c0,1.4,1,2.6,2.1,3.4c-0.7,0-1.5-0.2-1.5-0.5c0,0,0,0,0,0.1c0,2,1.1,3.6,3,4c-0.3,0.1-0.8,0.1-1.2,0.1c-0.3,0-0.6,0-0.8-0.1
	c0.5,1.6,2,2.8,3.8,2.8c-1.4,1.1-3.2,1.7-5.1,1.7c-0.3,0-0.7,0-1-0.1c1.8,1.2,3.9,1.8,6.2,1.8c7.5,0,11.5-6.2,11.5-11.5
	c0-0.2,0-0.4,0-0.5C18.5,4,19.2,3.3,19.8,2.5z"/>
<g id="XMLID_222_">
</g>
<g id="XMLID_223_">
</g>
<g id="XMLID_224_">
</g>
<g id="XMLID_225_">
</g>
<g id="XMLID_226_">
</g>
<g id="XMLID_227_">
</g>
</svg>
