<?xml version="1.0" encoding="utf-8"?>
<!-- Generator: Adobe Illustrator 19.0.0, SVG Export Plug-In . SVG Version: 6.00 Build 0)  -->
<svg version="1.1" id="Layer_1" xmlns="http://www.w3.org/2000/svg" xmlns:xlink="http://www.w3.org/1999/xlink" x="0px" y="0px"
	 viewBox="0 0 30.3 29.8" style="enable-background:new 0 0 30.3 29.8;" xml:space="preserve">
<style type="text/css">
	.st0{fill:#6DB8D8;}
</style>
<g id="XMLID_3181_">
	<path id="XMLID_3184_" class="st0" d="M8.4,4.6c0,1.4-1.1,2.6-2.8,2.6c-1.6,0-2.7-1.2-2.7-2.6C2.8,3.1,3.9,2,5.6,2
		C7.3,2,8.3,3.1,8.4,4.6z M3.3,26.3v-17h5v17H3.3z"/>
	<path id="XMLID_3182_" class="st0" d="M11.3,14.6c0-2.1,0-3.4-0.1-5.4h4.5l0.2,3h0.1c0.7-2,2.4-3,5.2-3c3.4,0,6,2,6,6.9v10.1h-5
		v-9.5c0-2.2-0.9-3.6-2.8-3.6c-1.4,0-2.5,1-2.9,2c-0.1,0.3-0.4,0.8-0.4,1.3v9.9h-5V14.6z"/>
</g>
</svg>
