<?xml version="1.0" encoding="utf-8"?>
<!-- Generator: Adobe Illustrator 19.0.0, SVG Export Plug-In . SVG Version: 6.00 Build 0)  -->
<svg version="1.1" id="Layer_1" xmlns="http://www.w3.org/2000/svg" xmlns:xlink="http://www.w3.org/1999/xlink" x="0px" y="0px"
	 viewBox="0 0 32.2 25" style="enable-background:new 0 0 32.2 25;" xml:space="preserve">
<style type="text/css">
	.st0{fill:#6DB8D8;}
</style>
<path id="XMLID_3180_" class="st0" d="M30,4.5c-1,0.4-2,0.7-3.1,0.8c1.1-0.7,2-1.7,2.4-3c-1,0.6-2.2,1.1-3.4,1.3
	c-1-1-2.4-1.7-3.9-1.7c-3,0-5.4,2.4-5.4,5.4c0,0.4,0,0.8,0.1,1.2C12.2,8.4,8.3,6.2,5.6,3C5.1,3.8,4.9,4.7,4.9,5.7
	c0,1.9,1.1,3.5,2.6,4.5c-0.9,0-2.3-0.3-2.3-0.7c0,0,0,0,0,0.1c0,2.6,1.7,4.8,4.2,5.3C8.9,15,8.3,15,7.8,15c-0.3,0-0.7,0-1.1-0.1
	c0.7,2.1,2.7,3.7,5,3.7C9.9,20.1,7.6,21,5.1,21c-0.4,0-0.9,0-1.3-0.1c2.4,1.5,5.2,2.4,8.3,2.4c9.9,0,15.3-8.2,15.3-15.3
	c0-0.2,0-0.5,0-0.7C28.4,6.5,29.3,5.6,30,4.5z"/>
</svg>
