<svg xmlns="http://www.w3.org/2000/svg" viewBox="0 0 56.58 485"><defs><style>.a{opacity:0.6;}.b{fill:#fff;opacity:0.4;}</style></defs><title>bubbles</title><g class="a"><polygon class="b" points="42.47 467 46.25 467 46.25 485 48.25 485 48.25 464 43.88 464 42.47 467"/><polygon class="b" points="32.51 454 36.25 454 36.25 472 38.25 472 38.25 452 33.91 452 32.51 454"/><polygon class="b" points="36.25 21 38.25 21 38.25 0 33.91 0 32.51 3 36.25 3 36.25 21"/><path class="b" d="M14.45,399.88A14.49,14.49,0,0,0,0,414.26a14.25,14.25,0,0,0,14.25,14.37V434h2v-5.48A14.21,14.21,0,0,0,28.9,414.26,14.49,14.49,0,0,0,14.45,399.88Zm1.79,25.38V413H12l-1.41,2h3.62v10.41A11.08,11.08,0,0,1,3.44,414.26a10.89,10.89,0,0,1,11-11.16,10.9,10.9,0,0,1,11,11.16A11.09,11.09,0,0,1,16.25,425.25Z"/><path class="b" d="M38.27,48.67a12.29,12.29,0,0,0,12.46-12.4,12.46,12.46,0,0,0-24.92,0A12.29,12.29,0,0,0,38.27,48.67Zm0-22a9.39,9.39,0,0,1,9.5,9.62,9.5,9.5,0,1,1-19,0A9.39,9.39,0,0,1,38.27,26.65Z"/><path class="b" d="M42.92,387.66A6,6,0,0,0,37,393.57a5.94,5.94,0,0,0,11.88,0A6,6,0,0,0,42.92,387.66Zm0,10.5a4.55,4.55,0,0,1-4.53-4.59,4.53,4.53,0,1,1,9.05,0A4.55,4.55,0,0,1,42.92,398.16Z"/><path class="b" d="M42.92,370.33A6,6,0,0,0,37,376.23a5.94,5.94,0,0,0,11.88,0A6,6,0,0,0,42.92,370.33Zm0,10.5a4.55,4.55,0,0,1-4.53-4.59,4.53,4.53,0,1,1,9.05,0A4.55,4.55,0,0,1,42.92,380.82Z"/><polygon class="b" points="45.25 281 45.25 270 42.37 270 41.56 271 43.25 271 43.25 281 45.25 281"/><polygon class="b" points="48.25 170 48.25 149 43.88 149 42.47 152 46.25 152 46.25 170 48.25 170"/><polygon class="b" points="32.51 139 36.25 139 36.25 157 38.25 157 38.25 137 33.91 137 32.51 139"/><polygon class="b" points="14.25 304 14.25 286 10.53 286 9.31 288 12.25 288 12.25 304 14.25 304"/><path class="b" d="M50.44,354.6a6.16,6.16,0,0,0-6.14,6.11,6.14,6.14,0,0,0,12.29,0A6.16,6.16,0,0,0,50.44,354.6Zm0,10.86a4.71,4.71,0,0,1-4.68-4.74,4.68,4.68,0,1,1,9.36,0A4.71,4.71,0,0,1,50.44,365.46Z"/><path class="b" d="M30.78,327.23a7.76,7.76,0,0,0,7.87-7.83,7.87,7.87,0,0,0-15.74,0A7.76,7.76,0,0,0,30.78,327.23Zm0-13.91a5.93,5.93,0,0,1,6,6.08,6,6,0,1,1-12,0A5.93,5.93,0,0,1,30.78,313.32Z"/><path class="b" d="M38.41,279.32a9,9,0,0,0-18,0,9,9,0,0,0,18,0Zm-15.87,0a6.86,6.86,0,1,1,13.73,0,6.86,6.86,0,1,1-13.73,0Z"/><path class="b" d="M14.25,113.62V119h2v-5.48A14.21,14.21,0,0,0,28.9,99.26a14.45,14.45,0,0,0-28.9,0A14.25,14.25,0,0,0,14.25,113.62Zm.21-25.53a10.9,10.9,0,0,1,11,11.16,11.09,11.09,0,0,1-9.22,11V98H12l-1.41,2h3.62v10.41A11.08,11.08,0,0,1,3.44,99.26,10.89,10.89,0,0,1,14.45,88.1Z"/><path class="b" d="M16.63,224.06a4.64,4.64,0,0,0-9.29,0A4.58,4.58,0,0,0,12,228.68,4.58,4.58,0,0,0,16.63,224.06ZM12,227.65a3.56,3.56,0,0,1-3.54-3.59,3.54,3.54,0,1,1,7.08,0A3.56,3.56,0,0,1,12,227.65Z"/><path class="b" d="M28.36,192.23a6.6,6.6,0,0,0,13.21,0,6.6,6.6,0,0,0-13.21,0Zm6.6-5.1a5,5,0,0,1,5,5.1,5,5,0,1,1-10.06,0A5,5,0,0,1,35,187.13Z"/><path class="b" d="M50.74,254.6a12.46,12.46,0,0,0-24.92,0,12.46,12.46,0,0,0,24.92,0Zm-12.46,9.62a9.55,9.55,0,0,1-9.5-9.62,9.5,9.5,0,1,1,19,0A9.55,9.55,0,0,1,38.27,264.23Z"/><path class="b" d="M17.44,329.94A14.25,14.25,0,0,0,3.23,344.09a14,14,0,0,0,14.21,14.14,14,14,0,0,0,14.21-14.14A14.25,14.25,0,0,0,17.44,329.94Zm0,25.12a10.9,10.9,0,0,1-10.83-11,10.72,10.72,0,0,1,10.83-11,10.72,10.72,0,0,1,10.83,11A10.9,10.9,0,0,1,17.44,355.06Z"/><path class="b" d="M42.92,129a5.86,5.86,0,0,0,5.94-5.91,5.94,5.94,0,0,0-11.88,0A5.86,5.86,0,0,0,42.92,129Zm0-10.49a4.48,4.48,0,0,1,4.53,4.59,4.53,4.53,0,1,1-9.05,0A4.48,4.48,0,0,1,42.92,118.48Z"/><path class="b" d="M42.92,111.64a5.86,5.86,0,0,0,5.94-5.91,5.94,5.94,0,0,0-11.88,0A5.86,5.86,0,0,0,42.92,111.64Zm0-10.49a4.48,4.48,0,0,1,4.53,4.59,4.53,4.53,0,1,1-9.05,0A4.48,4.48,0,0,1,42.92,101.14Z"/><path class="b" d="M48.86,88.39a5.94,5.94,0,0,0-11.88,0,5.94,5.94,0,0,0,11.88,0Zm-10.46,0a4.53,4.53,0,1,1,9.05,0,4.53,4.53,0,1,1-9.05,0Z"/></g></svg>