<svg xmlns="http://www.w3.org/2000/svg" viewBox="0 0 300 64.83"><defs><style>.a{fill:#fff;}</style></defs><title>clientSbdigital</title><path class="a" d="M40,38.59v-.16c0-8.8-5.81-12.52-16-15.14C15.26,21.07,13,20,13,16.63v-.16C13,14,15.27,12,19.55,12s8.66,1.9,13.18,5l5.8-8.4A29.36,29.36,0,0,0,19.71,2.21C9.41,2.21,2,8.31,2,17.42v.16C2,27.65,8.58,30.42,18.8,33,27.28,35.18,29,36.68,29,39.46v.16c0,2.93-2.73,4.76-7.25,4.76C16,44.37,11.24,42,6.65,38.27L0,46.12A32.36,32.36,0,0,0,21.47,54.2C32.33,54.28,40,48.57,40,38.59Z"/><path class="a" d="M88,39.62v-.16c0-6.82-3.26-10.22-9-12.44,3.65-2.06,7-5.23,7-10.94v-.16C86,8,79.19,3,68.81,3H45V53H69.36C80.77,53,88,48.89,88,39.62ZM74,18.06C74,21.78,71.34,23,66.43,23H56V12H67.14C71.82,12,74,14.57,74,17.9Zm3,20.21C77,42,74.28,43,69.36,43H56V32H69c5.71,0,8,2.7,8,6.11Z"/><path class="a" d="M140,28.2V28c0-14.27-11.44-25-27.29-25H93V53h19.71C128.65,53,140,42.47,140,28.2Zm-12,.16c0,9-6.1,14.64-15.21,14.64H104V13h8.79C121.91,13,128,19.25,128,28.2Z"/><path class="a" d="M156,10V0H144V10Zm-1,43.49V15H144V53h11Z"/><path class="a" d="M200,44V14H189v5.8c-3-3.25-6.64-5.79-12.66-5.79C167.47,14,159,20.52,159,32.09v.16c0,11.49,8.22,18.07,17.26,18.07A15,15,0,0,0,189,44.06V46c0,6.9-3.44,10.54-11,10.54A25.49,25.49,0,0,1,165,53v9.83c4,1.59,8.73,2,13.48,2,14.42,0,21.73-5.83,21.73-20.83ZM189,32.25a9,9,0,0,1-18,0v-.16c0-5.31,3.61-9,9-9a8.56,8.56,0,0,1,9,9Z"/><path class="a" d="M217,10V0H206V10Zm0,43.49V15H206V53h11Z"/><path class="a" d="M246,51.9V43.1a12.46,12.46,0,0,1-5.41,1.35c-2.46,0-3.59-1.19-3.59-3.73V24h9V15h-9V5H226V15h-5v9h5V42.63c0,9,4.53,11.65,11.27,11.65C241,54.2,243,53.33,246,51.9Z"/><path class="a" d="M266,14.33a30.45,30.45,0,0,0-12,2.06v9.43a25.83,25.83,0,0,1,10.73-2.14c5.47,0,8.27,2.54,8.27,7.05v.63a28.09,28.09,0,0,0-9.41-1.59c-9.19,0-15.59,3.88-15.59,12.36v.16c0,7.69,6,11.89,13.29,11.89A15.43,15.43,0,0,0,273,49.29V53h10V31.06C283,20.52,278,14.33,266,14.33Zm7,25.52c0,4-3.7,6.82-8.77,6.82-3.57,0-6.23-1.74-6.23-4.68v-.16c0-3.49,3.06-5.31,7.82-5.31A18.18,18.18,0,0,1,273,38Z"/><rect class="a" x="289" width="11" height="53"/></svg>