<svg xmlns="http://www.w3.org/2000/svg" viewBox="0 0 200 41.09"><defs><style>.a{fill:#fff;}</style></defs><title>clientLinknyc</title><path class="a" d="M199.86,26.52c-2.28,0-4.57,0-6.85,0-.89,0-1.26.38-1.53,1.18-.35,1-.3,2.24-1.33,2.94-.82,2.41-3.18,2.7-5.07,3.3s-3.85-.3-5.67-1.22c-2.51-1.26-3.29-3.71-4.31-5.94a10.92,10.92,0,0,1-.56-3.75,31,31,0,0,1,0-4,25.93,25.93,0,0,1,.5-3.79,16.87,16.87,0,0,1,2.67-5.63,6.62,6.62,0,0,1,4-2.38,7.8,7.8,0,0,1,7.24,1.29,9.61,9.61,0,0,1,3.19,5.2H200v-1.4a1.76,1.76,0,0,0,0-.23c-.08-.24-.16-.47-.23-.71-.15-.47-.28-.94-.39-1.43a.36.36,0,0,1-.24-.12c-.29-.44-.33-1-.62-1.48-1.33-2.07-2.6-4.1-4.82-5.51a18.11,18.11,0,0,0-6-2.39,20.15,20.15,0,0,0-8.84.09,7.4,7.4,0,0,0-3,1.06c-1.82,1.48-3.93,2.53-5.36,4.64a21.25,21.25,0,0,0-3.85,9.9,68.82,68.82,0,0,0,0,8.74,13.38,13.38,0,0,0,.59,3.49,19.82,19.82,0,0,0,5.27,8.8,13.45,13.45,0,0,0,6.12,3.29,21.22,21.22,0,0,0,6.27.6,18,18,0,0,0,5.9-1.46c4.4-1.84,7-5.21,8.3-9.68a.79.79,0,0,1,0-.1,12.78,12.78,0,0,1,.79-2.38C199.83,27.13,199.84,26.83,199.86,26.52Z"/><path class="a" d="M0,.39H7.77s.11.17.15.24A.85.85,0,0,1,8,.94C8,11.58,8,21.72,8,33.06H26.87A14.45,14.45,0,0,1,27,36.32c0,1.15,0,2.07,0,3.41H0Z"/><path class="a" d="M107.43.52c.71,1.2,1.42,2.33,2.07,3.48,1.13,2,2.13,4.13,3.38,6.09s2.08,4.16,3.45,6.09a56.86,56.86,0,0,1,3.19,5.91c1,1.84,2.07,3.65,3.12,5.49a2,2,0,0,0,.28-.22.39.39,0,0,0,.09-.21c0-8.82,0-17.63,0-26.63h6.24c.8,0,1.15.48,1.25,1.18a6.84,6.84,0,0,1,0,1c0,12.16,0,24.2,0,36.36a2.82,2.82,0,0,1-.06.66h-8.16c-1.13-2-2.27-3.76-3.41-5.7-.08-.14-.28-.16-.34-.3-1.37-3.48-3.53-6.48-5.28-9.76-2.07-3.86-4.57-7.63-6.57-11.86V39.9a24,24,0,0,1-3.91.11c-1.24,0-2.09,0-4.09,0V3.54c0-.5.15-1,.17-1.5,0-1.08.47-1.49,1.5-1.51C102.65.5,105.05.52,107.43.52Z"/><path class="a" d="M71.33,1.06h7.33V21.73c.67-.31,1-.41,1.09-.67.48-1.08,1.43-1.72,2.08-2.62,1.17-1.63,2.67-3,3.75-4.67a10.79,10.79,0,0,1,2.62-2.71H97c-2.64,4-6.27,6.76-9.4,10.19A2.54,2.54,0,0,0,88,23.4c1.95,3.18,3.93,6.35,5.71,9.63a27.75,27.75,0,0,1,2.38,4.26,10.42,10.42,0,0,0,1.5,2.29,2.2,2.2,0,0,1-.18.31c-.05.06-.13.13-.19.13H88.78c-2.54-4-4.37-8.26-7-12.09-1.71.57-2.1,2.17-3.08,3.18-.22.23-.2.76-.2,1.15,0,2.5,0,5,0,7.64A18.78,18.78,0,0,1,75,40c-1.15,0-2.34,0-3.67,0Z"/><path class="a" d="M151.23,17.73c1.27-3.09,2.67-6,3.81-8.91S157.67,3.06,159,.39h8.57A7.45,7.45,0,0,1,167.14,2c-2.7,5.29-5.42,10.62-8.14,15.9-.36.69-.82,1.34-1.19,2-.95,1.77-2.38,3.47-2.87,5.37a23.48,23.48,0,0,0-.27,5.73v8.68H147c0-4,0-8.35,0-12.57a5.48,5.48,0,0,0-1.41-4.4c-.66-.66-.81-1.79-1.29-2.66-2.49-4.54-4.94-9.09-7.4-13.65C136,4.75,135.19,3,134.11,1.36,134,1.19,134,.92,134,.52h8.25A1.72,1.72,0,0,1,143.94,2a11.44,11.44,0,0,0,1.45,3.16Z"/><path class="a" d="M41.33,11.06h7.33v4.17c1.33-2.07,2.68-3.64,4.81-4.37.22-.07.37-.33.57-.33a32.69,32.69,0,0,1,6.45.09,7.94,7.94,0,0,1,4.06,2.18,8.63,8.63,0,0,1,2,3.92A16.09,16.09,0,0,1,67,21.29c0,6.16,0,12.32,0,18.64a26.49,26.49,0,0,1-3.72.09c-1.24,0-2.61,0-3.95,0V37.49c0-5.08.11-10.16.06-15.23A10.78,10.78,0,0,0,58.92,19c-.51-1.52-2-2.06-3.32-2.41-1.95-.52-5.47.81-6.15,3.66a12.66,12.66,0,0,0-.47,3c0,5.49,0,11,0,16.65a25.7,25.7,0,0,1-3.75.09c-1.24,0-2.58,0-3.91,0Z"/><path class="a" d="M36.67,39.72H29.33V11.1A25.29,25.29,0,0,1,32.88,11c1.24,0,2.45,0,3.79,0Z"/><path class="a" d="M29.33,7.06V.39H37c0,1.33,0,2.08,0,3.22s0,2.12,0,3.45Z"/></svg>