<svg xmlns="http://www.w3.org/2000/svg" viewBox="0 0 200 44.37"><defs><style>.a{fill:#fff;}</style></defs><title>clientKountable</title><path class="a" d="M56.19,28.79l-.14-.28c-1.81-2.5-2.64-3.76-3.48-4.87l.56-.7c1.11-1.25,2.5-3.06,5-6.12a1.5,1.5,0,0,0,.42-1,1,1,0,0,0-1-1H56.19a1.91,1.91,0,0,0-1.39.7l-4.59,6c-.28.42-.56.56-1.39.56H47V6.82c0-1-.56-1.11-1.11-1.11H44.51c-.7,0-1.11.42-1.11,1.25v27A1,1,0,0,0,44.51,35h1.25a1,1,0,0,0,1.11-1.11V25.59h1.95a1.51,1.51,0,0,1,1.25.56l5.84,8.07A1.47,1.47,0,0,0,57.3,35h1.39a1,1,0,0,0,1.11-1c0-.28-.14-.56-.56-1.11A38,38,0,0,1,56.19,28.79Z"/><path class="a" d="M68.29,14.46c-4.45,0-9.18,1.25-9.18,10.43,0,4,.7,6.82,2.23,8.34s3.48,2.09,6.68,2.09c5.56,0,9-1.81,9-10.57S74.13,14.46,68.29,14.46ZM73.71,24.9c0,6.68-2.09,7.09-5.56,7.09-3.76,0-5.42-1-5.42-7.23,0-4.73.83-7,5.56-7C72.46,17.8,73.71,18.78,73.71,24.9Z"/><path class="a" d="M95,15H93.74a1,1,0,0,0-1.11,1.11V30c0,.56,0,.7-.14.7a1.52,1.52,0,0,1-.56.28,12.52,12.52,0,0,1-4.87.83c-2.64,0-3.06-.7-3.34-1.39a10.36,10.36,0,0,1-.28-2.5V16a1,1,0,0,0-1.11-1.11H81.08A1,1,0,0,0,80,16V28.65a12.47,12.47,0,0,0,.42,3.89c.7,1.81,2.5,2.64,6,2.64.42,0,4.31,0,6.54-1.39,0,.56.28,1,1.11,1h1.11a1,1,0,0,0,1.11-1.11V16.13A1.22,1.22,0,0,0,95,15Z"/><path class="a" d="M109,14.6c-1.67,0-5,.28-6.68,1.53h0c0-.56-.14-1.11-1.11-1.11H100a1.14,1.14,0,0,0-1.25,1.11v17.8A1,1,0,0,0,99.86,35h1.25a1,1,0,0,0,1.11-1.11V20.17c0-.56.14-.7.14-.7a1.92,1.92,0,0,1,.56-.42,11.4,11.4,0,0,1,5.15-1c2.5,0,2.92.56,3.06,1.25a9.48,9.48,0,0,1,.28,2.5V34.08a1,1,0,0,0,1.11,1.11h1.39A1,1,0,0,0,115,34.08V21.28a11.16,11.16,0,0,0-.42-3.89C114,15.3,112.38,14.6,109,14.6Z"/><path class="a" d="M128.09,32.68a.88.88,0,0,0-.83-.7h-.56c-.42,0-1,.14-1.53.14-.83,0-1.39-.14-1.53-.56a5.4,5.4,0,0,1-.42-2.5V18.36h3.2a1,1,0,0,0,1.11-1.11V16c0-.7-.42-1-1.11-1h-3.34V11c0-1.11-.56-1.25-1-1.25h-1.25c-.56,0-1,.42-1,1.25-.14,2.23-.14,3.48-.14,4h-1.81a1,1,0,0,0-1.11,1.11v1.11a1,1,0,0,0,1,1.11h1.81V29.62c0,1.95.14,3.34.83,4.31a4.81,4.81,0,0,0,3.62,1.39,10.17,10.17,0,0,0,3.06-.42c.7-.28,1-.7,1-1.11a3.13,3.13,0,0,0-.14-1A.14.14,0,0,0,128.09,32.68Z"/><path class="a" d="M138.25,14.46a21.64,21.64,0,0,0-6.4.83,1.06,1.06,0,0,0-.83,1.11,4.94,4.94,0,0,0,.28,1.39.9.9,0,0,0,.83.83,4.3,4.3,0,0,0,1.11-.28h.28a19.7,19.7,0,0,1,4.31-.42c2.92,0,3.62.7,3.89,1.39A6.14,6.14,0,0,1,142,21.7v1.39a33.89,33.89,0,0,0-3.76-.14,13,13,0,0,0-6,1.11c-1.81,1-2.64,2.5-2.64,4.87,0,4.31,2.36,6.54,7,6.54A8.42,8.42,0,0,0,142,33.8v.42a1,1,0,0,0,1.11.83h1c.83,0,1.11-.42,1.11-1.25V21.14c0-2.5-.14-4-1.25-5S141.31,14.46,138.25,14.46ZM141.86,26v4c0,.42,0,.56-.14.7a3,3,0,0,1-.7.56,6.66,6.66,0,0,1-4,1c-2.5,0-4.17-.56-4.17-3.34a2.44,2.44,0,0,1,.83-2.09,9.23,9.23,0,0,1,4.73-1A13.65,13.65,0,0,1,141.86,26Z"/><path class="a" d="M158,14.6a12.77,12.77,0,0,0-6.26,1.25V6.54a1,1,0,0,0-1.11-1.11h-1.25a1,1,0,0,0-1.11,1.11V33.66c0,.56.14,1.39,1.11,1.39h.83c.42,0,1.11,0,1.11-.83h0a13.35,13.35,0,0,0,4.59.83c6,0,9.46-1.67,9.46-10.57C165.37,17.66,163.14,14.6,158,14.6Zm3.89,10.15c0,5.56-1.25,7.09-6.12,7.09a15.09,15.09,0,0,1-4-.7v-11c0-.42,0-.56.14-.7s.14-.28.42-.42c1-.7,3.06-1,4.73-1C160.78,17.94,161.89,19.47,161.89,24.76Z"/><path class="a" d="M170.65,5.42H169.4a1,1,0,0,0-1.11,1.11V33.8a1,1,0,0,0,1.11,1.11h1.25a1,1,0,0,0,1.11-1.11V6.54A1,1,0,0,0,170.65,5.42Z"/><path class="a" d="M190,31a2.58,2.58,0,0,0-1,.28,14.25,14.25,0,0,1-5.15.83c-3.62,0-5.56-1-5.7-5.84h12a2.15,2.15,0,0,0,1.11-.28,2,2,0,0,0,.42-1.53c0-6.26-1.25-9.87-7.93-9.87-6.26,0-9.18,3.34-9.18,10.57,0,7.51,2.5,10.43,9,10.43a18.53,18.53,0,0,0,6.82-1.25c.56-.28.83-.56.83-1.11a4.93,4.93,0,0,0-.42-1.53A.78.78,0,0,0,190,31Zm-1.81-8.48v.56h-10c.14-3.89,1.81-5.42,5.42-5.42C187.48,17.66,188.18,19.47,188.18,22.53Z"/><path class="a" d="M.14,13.35v2.36a.66.66,0,0,0,.7.7A16.57,16.57,0,0,0,16.55.7a.66.66,0,0,0-.7-.7H13.49a.66.66,0,0,0-.7.7,12.62,12.62,0,0,1-12,11.82C.56,12.66.14,12.93.14,13.35Z"/><path class="a" d="M1,23.92A24,24,0,0,0,24.2.83a.66.66,0,0,0-.7-.7H21.56C21,0,20.72.28,20.72.7a20.13,20.13,0,0,1-6,13.77A20.77,20.77,0,0,1,1,20.45a.66.66,0,0,0-.7.7v1.95A.7.7,0,0,0,1,23.92Z"/><path class="a" d="M28.93,0a.66.66,0,0,0-.7.7A28.32,28.32,0,0,1,26,10.85a29.48,29.48,0,0,1-6,8.9,27.86,27.86,0,0,1-8.9,6A28.32,28.32,0,0,1,1,28a.66.66,0,0,0-.7.7V31a.66.66,0,0,0,.7.7A31.79,31.79,0,0,0,32,.7a.66.66,0,0,0-.7-.7Z"/><path class="a" d="M0,31V28.65A.66.66,0,0,1,.7,28,16.32,16.32,0,0,1,16.27,43.53a.66.66,0,0,1-.7.7H13.21a.66.66,0,0,1-.7-.7A12.49,12.49,0,0,0,.7,31.71C.42,31.85,0,31.43,0,31Z"/><path class="a" d="M.83,20.45A24,24,0,0,1,24.06,43.67a.66.66,0,0,1-.7.7H21.28a.66.66,0,0,1-.7-.7,20.13,20.13,0,0,0-6-13.77,20.13,20.13,0,0,0-13.77-6,.66.66,0,0,1-.7-.7V21.28A.65.65,0,0,1,.83,20.45Z"/><path class="a" d="M28.79,44.37a.66.66,0,0,1-.7-.7,28.32,28.32,0,0,0-2.23-10.15,29.48,29.48,0,0,0-6-8.9,27.86,27.86,0,0,0-8.9-6A28.32,28.32,0,0,0,.83,16.41a.66.66,0,0,1-.7-.7V13.35a.66.66,0,0,1,.7-.7,31.79,31.79,0,0,1,31,31,.66.66,0,0,1-.7.7Z"/><path class="a" d="M194.58,13.49h-1v-.56H196v.56h-1v3.2h-.56v-3.2Z"/><path class="a" d="M196.8,13.07h.56l1,2.23,1-2.23h.56l.14,3.62h-.56l-.14-2.78L198.47,16h-.28l-.83-2.09-.14,2.92h-.56Z"/></svg>