<svg xmlns="http://www.w3.org/2000/svg" viewBox="0 0 99.95 99.63"><defs><style>.a{fill:#4d4d4d;}</style></defs><title>iconsRapidPrototyping</title><path class="a" d="M50,0C28.26,0,9.8,13.18,2.88,33.18h32l-2.16,3h-31c-.33,2-.62,3-.86,4H30.59l-2.16,4H.28a32.32,32.32,0,0,0-.28,4H26.27l-2.16,3H0A50,50,0,1,0,50,0ZM35.37,86.8a8.33,8.33,0,1,1,8.33-8.33A8.33,8.33,0,0,1,35.37,86.8Zm29.17,0a8.33,8.33,0,1,1,8.33-8.33A8.33,8.33,0,0,1,64.54,86.8ZM75,59.88a7.31,7.31,0,0,1-.06.82c0,.09,0,.18,0,.27s-.07.38-.11.56-.08.31-.12.46-.08.26-.13.39-.14.36-.22.53l-.16.33-.13.24a7.22,7.22,0,0,1-6.1,3.7H32a7.22,7.22,0,0,1-6.1-3.7c0-.08-.08-.17-.13-.25l-.16-.32c-.08-.17-.15-.35-.21-.53s-.09-.26-.13-.39-.09-.3-.12-.46-.08-.37-.11-.56,0-.18,0-.27a7.26,7.26,0,0,1,0-.82h0a7.24,7.24,0,0,1,.92-3.62l18-31.07c0-.07.11-.13.11-.2v-7.8h0a1.5,1.5,0,1,1,0-3H56a1.5,1.5,0,1,1,0,3h0V25a.47.47,0,0,0,.09.2L74,56.25a7.29,7.29,0,0,1,1,3.62Z"/></svg>