<svg xmlns="http://www.w3.org/2000/svg" viewBox="0 0 100 100"><defs><style>.a{fill:#6bbad9;}</style></defs><title>iconsEcommerceSolutions</title><path class="a" d="M50,0a50,50,0,1,0,50,50A50,50,0,0,0,50,0ZM37.21,31.31a5.08,5.08,0,0,1,2.62-4l20.65-9.12s.09-.08.14-.1l2.84-3.88h0a1,1,0,0,1,1.13-1.54l6.05,4.46a1,1,0,0,1-1.13,1.56v0l-2.84,3.92s0,.55,0,.6l-1.27,12H38.24C37.46,33.24,37.07,32.54,37.21,31.31ZM35.39,87.5A5.54,5.54,0,1,1,40.93,82,5.54,5.54,0,0,1,35.39,87.5Zm29.22,0A5.54,5.54,0,1,1,70.15,82,5.54,5.54,0,0,1,64.61,87.5Zm6.33-12.26H29.45c-.7,0-1.45-.31-1.45-1V69.47l-.51-2.77L21.35,38.24H16v-5.5c0-.7-.23-1.5.46-1.5h9.82c.7,0,.72.8.72,1.5v5.5H72v17.3a1.84,1.84,0,0,1-1.11,1.73L35.86,67c-3.07.88-2.92,2.19.72,2.19H72v5C72,74.92,71.64,75.24,70.94,75.24Z"/></svg>