<svg xmlns="http://www.w3.org/2000/svg" viewBox="0 0 100 100"><defs><style>.a{fill:#226a85;}</style></defs><title>iconsCustomCloudArch</title><path class="a" d="M64.61,63.28c0-.1.09-.21.13-.32l.08-.23c0-.09.05-.18.07-.28s0-.22.06-.34L65,62a4.57,4.57,0,0,0,0-.49h0a4.32,4.32,0,0,0-.56-2.17L53.86,40.64s.14-.08.14-.12V35.24h-.4c.5,0,.91,0,.91-.5s-.41-.5-.91-.5H46.4c-.5,0-.91,0-.91.5s.41.5.91.5H46v5.29s.16.08.14.12L35.48,59.29A4.29,4.29,0,0,0,35,61.46h0a4.37,4.37,0,0,0,0,.5c0,.05,0,.11,0,.16s0,.23.06.34,0,.18.07.27l.08.23c0,.11.08.21.13.32l.1.2c0,.05,0-.21.08-.16a4.06,4.06,0,0,0,3.66,1.92H60.77a4.06,4.06,0,0,0,3.66-1.92c0-.05,0,.05.08,0S64.58,63.35,64.61,63.28Z"/><path class="a" d="M50,0a50,50,0,1,0,50,50A50,50,0,0,0,50,0ZM72.5,69.24h-45c-8.25,0-15-6.25-15-14.5s6.75-14.5,15-14.5h1C30,36.24,34.93,31,40.83,31a12.93,12.93,0,0,1,3,.58A18.3,18.3,0,0,1,76.89,41.3C83,43.19,87.5,48.21,87.5,54.94,87.5,63.19,80.75,69.24,72.5,69.24Z"/></svg>