<svg xmlns="http://www.w3.org/2000/svg" viewBox="0 0 100 100"><defs><style>.a{fill:#d44c30;}</style></defs><title>iconsMobileSoftware</title><path class="a" d="M50,0a50,50,0,1,0,50,50A50,50,0,0,0,50,0ZM71,81.11a3.13,3.13,0,0,1-3.12,3.13H32.13A3.13,3.13,0,0,1,29,81.11V19.36a3.12,3.12,0,0,1,3.13-3.12H67.88A3.12,3.12,0,0,1,71,19.36Z"/><path class="a" d="M34,75.24H66v-53H34Zm3-15.48a3.83,3.83,0,0,1,.59-1.85L46.86,42s.14-.07.14-.1v-4.7h-.06c-.43,0-.77-.07-.77-.5s.35-.5.77-.5h6.13c.43,0,.77.07.77.5s-.35.5-.77.5H53v4.7s.06.07.08.1L62.37,57.9A3.87,3.87,0,0,1,63,59.75h0c0,.14-.13.28-.14.42s-.07.09-.08.14-.06.19-.08.29-.05.16-.08.23,0,.13-.07.2-.07.18-.11.27l-.08.17s0,0-.07,0a3.57,3.57,0,0,1-3.12,1.77H40.83a3.57,3.57,0,0,1-3.11-1.77s0,0-.06-.07-.06-.08-.08-.13-.08-.16-.11-.25l-.06-.19c0-.08,0-.15-.06-.23s0-.19-.05-.29-.13-.09-.14-.14-.14-.28-.14-.42Z"/><circle class="a" cx="50" cy="79.36" r="2.25"/></svg>