<svg xmlns="http://www.w3.org/2000/svg" viewBox="0 0 100 100"><defs><style>.a{fill:#6bbad9;}</style></defs><title>iconsTechAssesmentsStrategy</title><path class="a" d="M50,0a50,50,0,1,0,50,50A50,50,0,0,0,50,0Zm0,87.5A37.5,37.5,0,1,1,87.5,50,37.5,37.5,0,0,1,50,87.5Z"/><path class="a" d="M70,46.24h9.76A29.86,29.86,0,0,0,54,20.24v9H46v-9a29.87,29.87,0,0,0-25.76,26H30v7H20.24C21.93,67.24,33,78.07,46,79.76V69.24h8V79.76c13-1.69,24.06-12.52,25.76-26.52H70ZM65,61.46A4.38,4.38,0,0,1,65,62l0,.16q0,.17-.06.34c0,.09,0,.18-.07.28l-.08.23c0,.11-.08.21-.13.32l-.1.2c0,.05,0-.21-.08-.16a4.06,4.06,0,0,1-3.66,1.92H39.23a4.06,4.06,0,0,1-3.66-1.92c0-.05,0,.05-.08,0s-.07-.05-.1-.12-.09-.17-.13-.28-.05-.13-.08-.21-.05-.17-.07-.26,0-.22-.06-.33S35,62,35,62a4.48,4.48,0,0,1,0-.49h0a4.32,4.32,0,0,1,.56-2.17L46.14,40.64s-.14-.08-.14-.12V35.24h.4c-.5,0-.91,0-.91-.5s.41-.5.91-.5h7.2c.5,0,.91,0,.91.5s-.41.5-.91.5H54v5.28s-.16.08-.14.12L64.52,59.28A4.29,4.29,0,0,1,65,61.46Z"/></svg>