<svg xmlns="http://www.w3.org/2000/svg" viewBox="0 0 100 100"><defs><style>.a{fill:#d4a530;}</style></defs><title>iconsCustomSoftwareDev</title><path class="a" d="M50,0a50,50,0,1,0,50,50A50,50,0,0,0,50,0ZM63.62,45.85a1.33,1.33,0,0,1-1.88,0h0L57,50.57c0,.07,0,.14,0,.21L48.8,81.19A6.18,6.18,0,0,1,38.46,84L16.2,61.7A6.18,6.18,0,0,1,19,51.36l30.41-8.15.2,0,4.74-4.74h0a1.33,1.33,0,0,1,1.88-1.88L63.62,44A1.33,1.33,0,0,1,63.62,45.85Zm6,4.39C69.6,38.24,61,31,52,31V25.62c12,0,22.94,9.62,22.94,24.62Zm10.67,0c0-17-13.28-30-28.28-30V14.94c19,0,33.61,16.29,33.61,35.29Z"/></svg>