<svg xmlns="http://www.w3.org/2000/svg" viewBox="0 0 232.25 905"><defs><style>.a{fill:#6bbad9;}.b,.c{fill:#fff;}.c{opacity:0;}.d{fill:#226a85;}.e{fill:#d4a530;}.f{fill:#d44c30;}.g{fill:#4d4d4d;}.h{fill:none;}</style></defs><title>ourProcess</title><path class="a" d="M198.43,97.14c.16-.35.3-.7.43-1.06s.18-.51.25-.77.17-.61.24-.92.16-.75.21-1.13c0-.18.05-.36.07-.54a15.22,15.22,0,0,0,.1-1.64.1.1,0,0,0,0,0,14.39,14.39,0,0,0-1.86-7.24L162,21.68c-.08-.14-.21-.27-.21-.4V6h0a3,3,0,1,0,0-6h-24a3,3,0,1,0,0,6h0V21.28c0,.14-.13.27-.21.4L101.68,83.82a14.58,14.58,0,0,0-1.93,7.24h0a14.55,14.55,0,0,0,.1,1.65c0,.18,0,.36.07.54q.09.57.21,1.13c.07.31.15.61.24.91s.16.52.26.78.27.71.43,1.05.21.44.32.66.16,0,.25.14a14.11,14.11,0,0,0,12.2,7.07h71.83a14.11,14.11,0,0,0,12.2-7.07c.1-.17.16-.16.25-.33S198.33,97.36,198.43,97.14Z"/><path class="b" d="M149.24,88.1a20.69,20.69,0,1,1,20.7-20.68,20.71,20.71,0,0,1-20.7,20.68m0-35.45A14.77,14.77,0,1,0,164,67.42a14.8,14.8,0,0,0-14.77-14.77"/><path class="b" d="M172.72,94.62a3,3,0,0,1-2.09-.87l-11-11a3,3,0,1,1,4.19-4.19l11,11a3,3,0,0,1-2.09,5.05"/><path class="c" d="M125.77,94.62a3,3,0,0,0,2.09-.87l11-11a3,3,0,1,0-4.19-4.19l-11,11a3,3,0,0,0,2.09,5.05"/><path class="d" d="M198.43,297.14c.16-.35.3-.7.43-1.06s.18-.51.25-.77.17-.61.24-.92.16-.75.21-1.13c0-.18.05-.36.07-.54a15.22,15.22,0,0,0,.1-1.64.1.1,0,0,0,0,0,14.39,14.39,0,0,0-1.86-7.24L162,221.68c-.08-.14-.21-.27-.21-.4V206h0a3,3,0,1,0,0-6h-24a3,3,0,1,0,0,6h0v15.28c0,.14-.13.27-.21.4l-35.86,62.15a14.58,14.58,0,0,0-1.93,7.24h0a14.55,14.55,0,0,0,.1,1.65c0,.18,0,.36.07.54q.09.57.21,1.13c.07.31.15.61.24.91s.16.52.26.78.27.71.43,1.05.21.44.32.66.16,0,.25.14a14.11,14.11,0,0,0,12.2,7.07h71.83a14.11,14.11,0,0,0,12.2-7.07c.1-.17.16-.16.25-.33S198.33,297.36,198.43,297.14Z"/><path class="b" d="M130,288.95a1.4,1.4,0,0,1-1.4-1.49l.58-9.92a1.39,1.39,0,0,1,.41-.91l29.57-29.57a1.41,1.41,0,0,1,2,0l9.33,9.33a1.41,1.41,0,0,1,0,2L140.92,288a1.41,1.41,0,0,1-.91.41Zm2-10.71-.45,7.8,7.79-.46,28.19-28.2L160.16,250Z"/><path class="b" d="M164.23,263a1.27,1.27,0,0,1-.9-.37l-8.39-8.39a1.28,1.28,0,1,1,1.81-1.81l8.39,8.39a1.28,1.28,0,0,1-.9,2.18"/><path class="b" d="M136.8,282a1.28,1.28,0,0,1-.9-2.18L159,256.76a1.28,1.28,0,0,1,1.81,1.81l-23.08,23.08a1.28,1.28,0,0,1-.9.37"/><path class="e" d="M198.43,497.14c.16-.35.3-.7.43-1.06s.18-.51.25-.77.17-.61.24-.92.16-.75.21-1.13c0-.18.05-.36.07-.54a15.22,15.22,0,0,0,.1-1.64.1.1,0,0,0,0,0,14.39,14.39,0,0,0-1.86-7.24L162,421.68c-.08-.14-.21-.27-.21-.4V406h0a3,3,0,1,0,0-6h-24a3,3,0,1,0,0,6h0v15.28c0,.14-.13.27-.21.4l-35.86,62.15a14.58,14.58,0,0,0-1.93,7.24h0a14.55,14.55,0,0,0,.1,1.65c0,.18,0,.36.07.54q.09.57.21,1.13c.07.31.15.61.24.91s.16.52.26.78.27.71.43,1.05.21.44.32.66.16,0,.25.14a14.11,14.11,0,0,0,12.2,7.07h71.83a14.11,14.11,0,0,0,12.2-7.07c.1-.17.16-.16.25-.33S198.33,497.36,198.43,497.14Z"/><path class="b" d="M151.75,489h-4.33a2.76,2.76,0,0,1-2.67-3v-3l-1.67-.71-2.45,2.11a3,3,0,0,1-4.15,0l-3.32-3.3a2.92,2.92,0,0,1,0-4.13l2.13-2.13-.59-1.62-3.1-.18a2.86,2.86,0,0,1-2.84-2.92v-4.66c0-1.61,1.16-3.47,2.77-3.47h3l.71-1.27-2.1-2.25a2.71,2.71,0,0,1-.85-2,2.8,2.8,0,0,1,.86-2l3.3-3.28a3,3,0,0,1,4.13,0l2.13,2.12,1.61-.58.18-3.49a3.22,3.22,0,0,1,2.92-3.24h4.66c1.62,0,2.67,2,2.67,3.56v3l1.67.71,2.45-2.11a3,3,0,0,1,4.16,0l3.31,3.3a2.89,2.89,0,0,1,0,4.14l-2.11,2.12.59,1.6,3.09.19a2.86,2.86,0,0,1,2.84,2.92v4.66A2.75,2.75,0,0,1,168,473h-3l-.71,1.58,2.1,2.38a2.91,2.91,0,0,1,0,4.15l-3.28,3.29a3,3,0,0,1-4.12,0l-2.14-2.14-1.6.59L155,486.2a3,3,0,0,1-2.93,2.95M147.75,485h4v-2a3.52,3.52,0,0,1,2.32-3.24l1.23-.52a3.79,3.79,0,0,1,3.83.7l1.86,1.86,2.76-2.77-1.87-1.87a3.54,3.54,0,0,1-.63-3.94l.51-1.63A3.83,3.83,0,0,1,165,469h2.78v-3H165a3.6,3.6,0,0,1-3.25-2.43l-.51-1.27a3.53,3.53,0,0,1,.68-3.85l1.87-1.88L161,453.79l-1.87,1.86a3.6,3.6,0,0,1-3.93.64l-1.23-.52a3.48,3.48,0,0,1-2.2-3.2V450h-4v2.58a3.52,3.52,0,0,1-2.32,3.24l-1.24.52a3.8,3.8,0,0,1-3.83-.7l-1.86-1.85-2.76,2.76,1.87,1.87a3.54,3.54,0,0,1,.63,3.94l-.5,1.32a3.6,3.6,0,0,1-3.21,2.31h-2.78v3h2.78a4,4,0,0,1,3.25,2.7l.51,1.46a3.65,3.65,0,0,1-.68,3.91L135.74,479l2.76,2.79,1.87-1.85a3.58,3.58,0,0,1,3.95-.63l1.23.51a3.49,3.49,0,0,1,2.2,3.2Z"/><path class="b" d="M149.75,475.59a7.8,7.8,0,1,1,7.8-7.79,7.8,7.8,0,0,1-7.8,7.79m0-12.3a4.5,4.5,0,1,0,4.5,4.5,4.5,4.5,0,0,0-4.5-4.5"/><path class="f" d="M198.43,697.14c.16-.35.3-.7.43-1.06s.18-.51.25-.77.17-.61.24-.92.16-.75.21-1.13c0-.18.05-.36.07-.54a15.22,15.22,0,0,0,.1-1.64.1.1,0,0,0,0,0,14.39,14.39,0,0,0-1.86-7.24L162,621.68c-.08-.14-.21-.27-.21-.4V606h0a3,3,0,1,0,0-6h-24a3,3,0,1,0,0,6h0v15.28c0,.14-.13.27-.21.4l-35.86,62.15a14.58,14.58,0,0,0-1.93,7.24h0a14.55,14.55,0,0,0,.1,1.65c0,.18,0,.36.07.54q.09.57.21,1.13c.07.31.15.61.24.91s.16.52.26.78.27.71.43,1.05.21.44.32.66.16,0,.25.14a14.11,14.11,0,0,0,12.2,7.07h71.83a14.11,14.11,0,0,0,12.2-7.07c.1-.17.16-.16.25-.33S198.33,697.36,198.43,697.14Z"/><path class="b" d="M140.45,692a1.49,1.49,0,0,1-1.08-.39,1.48,1.48,0,0,1-.46-1.06l0-11.87a1.55,1.55,0,0,1,1.54-1.54l23.72,0a1.55,1.55,0,0,1,1.54,1.54l0,11.88a1.5,1.5,0,0,1-1.54,1.48l-23.71,0ZM142,680.24V689l20.63,0v-8.79Z"/><path class="b" d="M143.75,642.33a2,2,0,0,1,2,1.9v12.36a10.45,10.45,0,0,1,2-.4v-1.24a2,2,0,0,1,4,0V656h1v-.53a2,2,0,0,1,4,0v.71a4.8,4.8,0,0,1,1.8.4,2.11,2.11,0,0,1,4.2,0V674a4.91,4.91,0,0,1-1.19,2.87H143.09a5.2,5.2,0,0,1-.8-1.38l-5.19-9a2.06,2.06,0,0,1-.35-1V657a2,2,0,0,1,4,0v3.49l1,2.07V644.23a2,2,0,0,1,2-1.9m0-3.09a5,5,0,0,0-5,5V652h-.14a4.92,4.92,0,0,0-4.86,5v8.56a5,5,0,0,0,.71,2.54l5,8.71a8.29,8.29,0,0,0,1.11,1.94,3.09,3.09,0,0,0,2.46,1.21h18.38a3.35,3.35,0,0,0,2.59-1.22,8,8,0,0,0,1.78-4.74V656.59a5.11,5.11,0,0,0-5.12-5,5.27,5.27,0,0,0-2,.4,5,5,0,0,0-6-.91,5.13,5.13,0,0,0-3.22-1.13,4,4,0,0,0-.61,0v-5.76a5,5,0,0,0-5-5"/><path class="g" d="M198.43,897.14c.16-.35.3-.7.43-1.06s.18-.51.25-.77.17-.61.24-.92.16-.75.21-1.13c0-.18.05-.36.07-.54a15.22,15.22,0,0,0,.1-1.64.1.1,0,0,0,0,0,14.39,14.39,0,0,0-1.86-7.24L162,821.68c-.08-.14-.21-.27-.21-.4V806h0a3,3,0,1,0,0-6h-24a3,3,0,1,0,0,6h0v15.28c0,.14-.13.27-.21.4l-35.86,62.15a14.58,14.58,0,0,0-1.93,7.24h0a14.55,14.55,0,0,0,.1,1.65c0,.18,0,.36.07.54q.09.57.21,1.13c.07.31.15.61.24.91s.16.52.26.78.27.71.43,1.05.21.44.32.66.16,0,.25.14a14.11,14.11,0,0,0,12.2,7.07h71.83a14.11,14.11,0,0,0,12.2-7.07c.1-.17.16-.16.25-.33S198.33,897.36,198.43,897.14Z"/><path class="h" d="M166.56,850.8l-.78-.09a20.55,20.55,0,0,0-2.4-.14A24.72,24.72,0,0,0,146.14,858a25.7,25.7,0,0,0-5.78,8.84,1.17,1.17,0,0,1-1.1.75l-.24,0a13.64,13.64,0,0,0-2.73-.28,13.32,13.32,0,0,0-9.2,3.62l-2,1.85,2.69-.13.72,0a16.23,16.23,0,0,1,9.75,3.28,1.17,1.17,0,0,1,.47.85c0,.3,0,.59.08.87l.09.8.8.08.86.08a1.17,1.17,0,0,1,.85.46,16.15,16.15,0,0,1,3.26,10.49l-.12,2.69,1.85-2a13.4,13.4,0,0,0,3.34-11.94,1.17,1.17,0,0,1,.72-1.33,25.6,25.6,0,0,0,8.84-5.78c5.39-5.39,8.12-12.73,7.3-19.64Z"/><path class="b" d="M168.71,849.57a1.17,1.17,0,0,0-.92-.92,23,23,0,0,0-4.45-.43,27.05,27.05,0,0,0-18.86,8.13,28,28,0,0,0-5.65,8.09l-.3.65-.71-.07a15.93,15.93,0,0,0-1.6-.08,15.55,15.55,0,0,0-14.39,9.53,1.18,1.18,0,0,0,1.54,1.54,13.21,13.21,0,0,1,5.15-1,14,14,0,0,1,7.54,2.21l.4.26.05.47c.07.65.16,1.21.26,1.73a1.17,1.17,0,0,0,.93.92c.54.11,1.11.19,1.73.26l.47.05.26.4A13.59,13.59,0,0,1,141.34,894a1.18,1.18,0,0,0,1.54,1.54,15.37,15.37,0,0,0,5-3.33,15.61,15.61,0,0,0,4.49-12.66l-.07-.71.65-.3a27.94,27.94,0,0,0,8.09-5.64C167.37,866.53,170.32,857.59,168.71,849.57Zm-9.36,21.65a25.6,25.6,0,0,1-8.84,5.78,1.17,1.17,0,0,0-.72,1.33,13.4,13.4,0,0,1-3.34,11.94l-1.85,2,.13-2.69A16.15,16.15,0,0,0,141.46,879a1.17,1.17,0,0,0-.85-.46l-.86-.08-.8-.08-.09-.8c0-.28-.06-.57-.08-.87a1.17,1.17,0,0,0-.47-.85,16.23,16.23,0,0,0-9.75-3.28l-.72,0-2.69.13,2-1.85a13.32,13.32,0,0,1,9.2-3.62,13.64,13.64,0,0,1,2.73.28l.24,0a1.17,1.17,0,0,0,1.1-.75,25.7,25.7,0,0,1,5.78-8.84,24.72,24.72,0,0,1,17.23-7.44,20.55,20.55,0,0,1,2.4.14l.78.09.09.78C167.47,858.49,164.74,865.83,159.35,871.22Z"/><path class="b" d="M156.19,866.61a5.44,5.44,0,0,1-3.85-9.28,5.57,5.57,0,0,1,7.69,0,5.44,5.44,0,0,1-3.85,9.28m0-8.7a3.26,3.26,0,0,0-2.31,5.58,3.35,3.35,0,0,0,4.61,0,3.27,3.27,0,0,0-2.31-5.57"/><path class="b" d="M131.45,889.14a13.17,13.17,0,0,1-2.16-.18,1.08,1.08,0,0,1-.89-.89,14.7,14.7,0,0,1,4.34-12.68,1.09,1.09,0,0,1,1.54,1.54,12.64,12.64,0,0,0-3.83,10,12.61,12.61,0,0,0,10-3.84,1.09,1.09,0,0,1,1.54,1.54,15,15,0,0,1-10.52,4.52"/><path class="g" d="M103.24,249.78,83.75,238.53v7.72a76.25,76.25,0,1,1,0-152.5v-7.5a83.75,83.75,0,1,0,0,167.5V261Z"/><path class="g" d="M103.24,449.78,83.75,438.53v7.72a76.25,76.25,0,0,1,0-152.5v-7.5a83.75,83.75,0,0,0,0,167.5V461Z"/><path class="g" d="M103.24,649.78,83.75,638.53v7.72a76.25,76.25,0,0,1,0-152.5v-7.5a83.75,83.75,0,0,0,0,167.5V661Z"/><path class="g" d="M103.24,849.78,83.75,838.53v7.72a76.25,76.25,0,0,1,0-152.5v-7.5a83.75,83.75,0,0,0,0,167.5V861Z"/><path class="g" d="M211.61,676.12,214,672H199l7.5,13,2.62-4.54a37.5,37.5,0,1,1-56.86,32.1h-5a42.5,42.5,0,1,0,64.36-36.43Z"/></svg>