<svg xmlns="http://www.w3.org/2000/svg" viewBox="0 0 106.3 174.71"><defs><style>.a{fill:#d44c30;}.b{fill:#fff;}.c{fill:#4d4d4d;}</style></defs><title>processMobile4</title><path class="a" d="M98.68,145.71c.16-.35.3-.7.43-1.06s.18-.51.25-.77.17-.61.24-.92.16-.75.21-1.13c0-.18.05-.36.07-.54a15.22,15.22,0,0,0,.1-1.64.1.1,0,0,0,0,0,14.39,14.39,0,0,0-1.86-7.24L62.21,70.26c-.08-.14-.21-.27-.21-.4V54.58h0a3,3,0,1,0,0-6H38a3,3,0,1,0,0,6h0V69.85c0,.14-.13.27-.21.4L1.93,132.4A14.58,14.58,0,0,0,0,139.64H0a14.55,14.55,0,0,0,.1,1.65c0,.18,0,.36.07.54q.09.57.21,1.13c.07.31.15.61.24.91s.16.52.26.78.27.71.43,1.05.21.44.32.66.16,0,.25.14a14.11,14.11,0,0,0,12.2,7.07H85.91a14.11,14.11,0,0,0,12.2-7.07c.1-.17.16-.16.25-.33S98.58,145.93,98.68,145.71Z"/><path class="b" d="M40.7,140.58a1.49,1.49,0,0,1-1.08-.39,1.48,1.48,0,0,1-.46-1.06l0-11.87a1.55,1.55,0,0,1,1.54-1.54l23.72,0a1.55,1.55,0,0,1,1.54,1.54l0,11.88a1.5,1.5,0,0,1-1.54,1.48l-23.71,0Zm1.53-11.76v8.79l20.63,0v-8.79Z"/><path class="b" d="M44,90.91a2,2,0,0,1,2,1.9v12.36a10.45,10.45,0,0,1,2-.4v-1.24a2,2,0,0,1,4,0v1.05h1v-.53a2,2,0,0,1,4,0v.71a4.8,4.8,0,0,1,1.8.4,2.11,2.11,0,0,1,4.2,0v17.38a4.91,4.91,0,0,1-1.19,2.87H43.34a5.2,5.2,0,0,1-.8-1.38l-5.19-9a2.06,2.06,0,0,1-.35-1v-8.56a2,2,0,0,1,4,0V109l1,2.07V92.81a2,2,0,0,1,2-1.9m0-3.09a5,5,0,0,0-5,5v7.77h-.14a4.92,4.92,0,0,0-4.86,5v8.56a5,5,0,0,0,.71,2.54l5,8.71a8.29,8.29,0,0,0,1.11,1.94,3.09,3.09,0,0,0,2.46,1.21H61.64a3.35,3.35,0,0,0,2.59-1.22A8,8,0,0,0,66,122.55V105.17a5.11,5.11,0,0,0-5.12-5,5.27,5.27,0,0,0-2,.4,5,5,0,0,0-6-.91,5.13,5.13,0,0,0-3.22-1.13,4,4,0,0,0-.61,0V92.81a5,5,0,0,0-5-5"/><polygon class="c" points="53.75 24.09 53.75 0 46.25 0 46.25 24.09 38.75 24.09 50 43.58 61.25 24.09 53.75 24.09"/><rect class="c" x="46.25" y="158.58" width="7.5" height="16.13"/><path class="c" d="M105.18,73.33A32.29,32.29,0,0,0,90,53.59l2.5-4.33h-15l7.5,13,2.5-4.33a27.51,27.51,0,0,1,0,47.63l2.5,4.33a32.51,32.51,0,0,0,15.14-36.56Z"/></svg>