<svg xmlns="http://www.w3.org/2000/svg" viewBox="0 0 100 175.87"><defs><style>.a{fill:#226a85;}.b{fill:#fff;}.c{fill:#4d4d4d;}</style></defs><title>processMobile2</title><path class="a" d="M98.68,145.51c.16-.35.3-.7.43-1.06s.18-.51.25-.77.17-.61.24-.92.16-.75.21-1.13c0-.18.05-.36.07-.54a15.22,15.22,0,0,0,.1-1.64.1.1,0,0,0,0,0,14.39,14.39,0,0,0-1.86-7.24L62.21,70c-.08-.14-.21-.27-.21-.4V54.37h0a3,3,0,1,0,0-6H38a3,3,0,1,0,0,6h0V69.65c0,.14-.13.27-.21.4L1.93,132.2A14.58,14.58,0,0,0,0,139.43H0a14.55,14.55,0,0,0,.1,1.65c0,.18,0,.36.07.54q.09.57.21,1.13c.07.31.15.61.24.91s.16.52.26.78.27.71.43,1.05.21.44.32.66.16,0,.25.14a14.11,14.11,0,0,0,12.2,7.07H85.91a14.11,14.11,0,0,0,12.2-7.07c.1-.17.16-.16.25-.33S98.58,145.73,98.68,145.51Z"/><path class="b" d="M30.26,137.32a1.4,1.4,0,0,1-1.4-1.49l.58-9.92a1.39,1.39,0,0,1,.41-.91L59.41,95.43a1.41,1.41,0,0,1,2,0l9.33,9.33a1.41,1.41,0,0,1,0,2L41.17,136.32a1.41,1.41,0,0,1-.91.41Zm2-10.71-.45,7.8,7.79-.46,28.19-28.2-7.34-7.34Z"/><path class="b" d="M64.48,111.36a1.27,1.27,0,0,1-.9-.37l-8.39-8.39A1.28,1.28,0,0,1,57,100.79l8.39,8.39a1.28,1.28,0,0,1-.9,2.18"/><path class="b" d="M37.05,130.39a1.28,1.28,0,0,1-.9-2.18l23.08-23.08A1.28,1.28,0,0,1,61,106.94L38,130a1.28,1.28,0,0,1-.9.37"/><rect class="c" x="46.25" y="158.37" width="7.5" height="17.5"/><polygon class="c" points="53.75 23.89 53.75 0 46.25 0 46.25 23.89 38.75 23.89 50 43.37 61.25 23.89 53.75 23.89"/></svg>