<svg xmlns="http://www.w3.org/2000/svg" viewBox="0 0 100 174.5"><defs><style>.a{fill:#d4a530;}.b{fill:#fff;}.c{fill:#4d4d4d;}</style></defs><title>processMobile3</title><path class="a" d="M98.68,144.14c.16-.35.3-.7.43-1.06s.18-.51.25-.77.17-.61.24-.92.16-.75.21-1.13c0-.18.05-.36.07-.54a15.22,15.22,0,0,0,.1-1.64.1.1,0,0,0,0,0,14.39,14.39,0,0,0-1.86-7.24L62.21,68.68c-.08-.14-.21-.27-.21-.4V53h0a3,3,0,1,0,0-6H38a3,3,0,1,0,0,6h0V68.28c0,.14-.13.27-.21.4L1.93,130.82A14.58,14.58,0,0,0,0,138.06H0a14.55,14.55,0,0,0,.1,1.65c0,.18,0,.36.07.54q.09.57.21,1.13c.07.31.15.61.24.91s.16.52.26.78.27.71.43,1.05.21.44.32.66.16,0,.25.14A14.11,14.11,0,0,0,14.09,152H85.91a14.11,14.11,0,0,0,12.2-7.07c.1-.17.16-.16.25-.33S98.58,144.36,98.68,144.14Z"/><path class="b" d="M52,136H47.67A2.76,2.76,0,0,1,45,133v-3l-1.67-.71-2.45,2.11a3,3,0,0,1-4.15,0l-3.32-3.3a2.92,2.92,0,0,1,0-4.13l2.13-2.13-.59-1.62-3.1-.18A2.86,2.86,0,0,1,29,117.13v-4.66c0-1.61,1.16-3.47,2.77-3.47h3l.71-1.27-2.1-2.25a2.71,2.71,0,0,1-.85-2,2.8,2.8,0,0,1,.86-2l3.3-3.28a3,3,0,0,1,4.13,0L43,100.31l1.61-.58.18-3.49A3.22,3.22,0,0,1,47.67,93h4.66C53.94,93,55,95,55,96.56v3l1.67.71,2.45-2.11a3,3,0,0,1,4.16,0l3.31,3.3a2.89,2.89,0,0,1,0,4.14l-2.11,2.12.59,1.6,3.09.19A2.86,2.86,0,0,1,71,112.47v4.66A2.75,2.75,0,0,1,68.23,120h-3l-.71,1.58L66.6,124a2.91,2.91,0,0,1,0,4.15L63.3,131.4a3,3,0,0,1-4.12,0L57,129.27l-1.6.59-.19,3.34a3,3,0,0,1-2.93,2.95M48,132h4v-2a3.52,3.52,0,0,1,2.32-3.24l1.23-.52a3.79,3.79,0,0,1,3.83.7l1.86,1.86L64,126l-1.87-1.87a3.54,3.54,0,0,1-.63-3.94L62,118.6a3.83,3.83,0,0,1,3.19-2.6H68v-3H65.22A3.6,3.6,0,0,1,62,110.57l-.51-1.27a3.53,3.53,0,0,1,.68-3.85L64,103.57l-2.76-2.77-1.87,1.86a3.6,3.6,0,0,1-3.93.64l-1.23-.52a3.48,3.48,0,0,1-2.2-3.2V97H48v2.58a3.52,3.52,0,0,1-2.32,3.24l-1.24.52a3.8,3.8,0,0,1-3.83-.7l-1.86-1.85L36,103.55l1.87,1.87a3.54,3.54,0,0,1,.63,3.94l-.5,1.32A3.6,3.6,0,0,1,34.78,113H32v3h2.78A4,4,0,0,1,38,118.7l.51,1.46a3.65,3.65,0,0,1-.68,3.91L36,126l2.76,2.79,1.87-1.85a3.58,3.58,0,0,1,3.95-.63l1.23.51A3.49,3.49,0,0,1,48,130Z"/><path class="b" d="M50,122.59a7.8,7.8,0,1,1,7.8-7.79,7.8,7.8,0,0,1-7.8,7.79m0-12.3a4.5,4.5,0,1,0,4.5,4.5,4.5,4.5,0,0,0-4.5-4.5"/><polygon class="c" points="53.75 22.52 53.75 0 46.25 0 46.25 22.52 38.75 22.52 50 42 61.25 22.52 53.75 22.52"/><rect class="c" x="46.25" y="157" width="7.5" height="17.5"/></svg>