<svg xmlns="http://www.w3.org/2000/svg" viewBox="0 0 100 150.28"><defs><style>.a{fill:#4d4d4d;}.b{fill:none;}.c{fill:#fff;}</style></defs><title>processMobile5</title><path class="a" d="M98.68,142.41c.16-.35.3-.7.43-1.06s.18-.51.25-.77.17-.61.24-.92.16-.75.21-1.13c0-.18.05-.36.07-.54a15.22,15.22,0,0,0,.1-1.64.1.1,0,0,0,0,0,14.39,14.39,0,0,0-1.86-7.24L62.21,67c-.08-.14-.21-.27-.21-.4V51.28h0a3,3,0,1,0,0-6H38a3,3,0,1,0,0,6h0V66.55c0,.14-.13.27-.21.4L1.93,129.1A14.58,14.58,0,0,0,0,136.34H0A14.55,14.55,0,0,0,.1,138c0,.18,0,.36.07.54q.09.57.21,1.13c.07.31.15.61.24.91s.16.52.26.78.27.71.43,1.05.21.44.32.66.16,0,.25.14a14.11,14.11,0,0,0,12.2,7.07H85.91a14.11,14.11,0,0,0,12.2-7.07c.1-.17.16-.16.25-.33S98.58,142.63,98.68,142.41Z"/><path class="b" d="M66.81,96.07,66,96a20.55,20.55,0,0,0-2.4-.14,24.72,24.72,0,0,0-17.23,7.44,25.7,25.7,0,0,0-5.78,8.84,1.17,1.17,0,0,1-1.1.75l-.24,0a13.64,13.64,0,0,0-2.73-.28,13.32,13.32,0,0,0-9.2,3.62l-2,1.85,2.69-.13.72,0a16.23,16.23,0,0,1,9.75,3.28A1.17,1.17,0,0,1,39,122c0,.3,0,.59.08.87l.09.8.8.08.86.08a1.17,1.17,0,0,1,.85.46A16.15,16.15,0,0,1,45,134.81l-.12,2.69,1.85-2A13.4,13.4,0,0,0,50,123.61a1.17,1.17,0,0,1,.72-1.33,25.6,25.6,0,0,0,8.84-5.78c5.39-5.39,8.12-12.73,7.3-19.64Z"/><path class="c" d="M69,94.84a1.17,1.17,0,0,0-.92-.92,23,23,0,0,0-4.45-.43,27.05,27.05,0,0,0-18.86,8.13,28,28,0,0,0-5.65,8.09l-.3.65-.71-.07a15.93,15.93,0,0,0-1.6-.08,15.55,15.55,0,0,0-14.39,9.53,1.18,1.18,0,0,0,1.54,1.54,13.21,13.21,0,0,1,5.15-1,14,14,0,0,1,7.54,2.21l.4.26.05.47c.07.65.16,1.21.26,1.73a1.17,1.17,0,0,0,.93.92c.54.11,1.11.19,1.73.26l.47.05.26.4a13.59,13.59,0,0,1,1.18,12.68,1.18,1.18,0,0,0,1.54,1.54,15.37,15.37,0,0,0,5-3.33,15.61,15.61,0,0,0,4.49-12.66l-.07-.71.65-.3a27.94,27.94,0,0,0,8.09-5.64C67.62,111.8,70.57,102.87,69,94.84ZM59.6,116.49a25.6,25.6,0,0,1-8.84,5.78,1.17,1.17,0,0,0-.72,1.33,13.4,13.4,0,0,1-3.34,11.94l-1.85,2,.13-2.69a16.15,16.15,0,0,0-3.26-10.49,1.17,1.17,0,0,0-.85-.46l-.86-.08-.8-.08-.09-.8c0-.28-.06-.57-.08-.87a1.17,1.17,0,0,0-.47-.85,16.23,16.23,0,0,0-9.75-3.28l-.72,0-2.69.13,2-1.85a13.32,13.32,0,0,1,9.2-3.62,13.64,13.64,0,0,1,2.73.28l.24,0a1.17,1.17,0,0,0,1.1-.75,25.7,25.7,0,0,1,5.78-8.84,24.72,24.72,0,0,1,17.23-7.44A20.55,20.55,0,0,1,66,96l.78.09.09.78C67.72,103.77,65,111.11,59.6,116.49Z"/><path class="c" d="M56.44,111.88a5.44,5.44,0,0,1-3.85-9.28,5.57,5.57,0,0,1,7.69,0,5.44,5.44,0,0,1-3.85,9.28m0-8.7a3.26,3.26,0,0,0-2.31,5.58,3.35,3.35,0,0,0,4.61,0,3.27,3.27,0,0,0-2.31-5.57"/><path class="c" d="M31.7,134.42a13.17,13.17,0,0,1-2.16-.18,1.08,1.08,0,0,1-.89-.89A14.7,14.7,0,0,1,33,120.66a1.09,1.09,0,1,1,1.54,1.54,12.64,12.64,0,0,0-3.83,10,12.61,12.61,0,0,0,10-3.84,1.09,1.09,0,0,1,1.54,1.54,15,15,0,0,1-10.52,4.52"/><polygon class="a" points="53.75 20.79 53.75 0 46.25 0 46.25 20.79 38.75 20.79 50 40.28 61.25 20.79 53.75 20.79"/></svg>