<svg xmlns="http://www.w3.org/2000/svg" viewBox="0 0 100 127.5"><defs><style>.a{fill:#6bbad9;}.b,.c{fill:#fff;}.c{opacity:0;}.d{fill:#4d4d4d;}</style></defs><title>processMobile1</title><path class="a" d="M98.68,97.14c.16-.35.3-.7.43-1.06s.18-.51.25-.77.17-.61.24-.92.16-.75.21-1.13c0-.18.05-.36.07-.54a15.22,15.22,0,0,0,.1-1.64.1.1,0,0,0,0,0,14.39,14.39,0,0,0-1.86-7.24L62.21,21.68c-.08-.14-.21-.27-.21-.4V6h0a3,3,0,1,0,0-6H38a3,3,0,1,0,0,6h0V21.28c0,.14-.13.27-.21.4L1.93,83.82A14.58,14.58,0,0,0,0,91.06H0a14.55,14.55,0,0,0,.1,1.65c0,.18,0,.36.07.54q.09.57.21,1.13c.07.31.15.61.24.91s.16.52.26.78.27.71.43,1.05.21.44.32.66.16,0,.25.14A14.11,14.11,0,0,0,14.09,105H85.91a14.11,14.11,0,0,0,12.2-7.07c.1-.17.16-.16.25-.33S98.58,97.36,98.68,97.14Z"/><path class="b" d="M49.49,88.1a20.69,20.69,0,1,1,20.7-20.68A20.71,20.71,0,0,1,49.49,88.1m0-35.45A14.77,14.77,0,1,0,64.27,67.42,14.8,14.8,0,0,0,49.5,52.65"/><path class="b" d="M73,94.62a3,3,0,0,1-2.09-.87l-11-11a3,3,0,0,1,4.19-4.19l11,11A3,3,0,0,1,73,94.62"/><path class="c" d="M26,94.62a3,3,0,0,0,2.09-.87l11-11a3,3,0,0,0-4.19-4.19l-11,11A3,3,0,0,0,26,94.62"/><rect class="d" x="46.25" y="110" width="7.5" height="17.5"/></svg>