<svg xmlns="http://www.w3.org/2000/svg" viewBox="0 0 228.57 240"><defs><style>.a{opacity:0.04;}.b{fill:#fff;}</style></defs><title>process5</title><g class="a"><path class="b" d="M224.31,191.6l-82.12-142c-.18-.31-.47-.61-.47-.92V13.71h0a6.86,6.86,0,1,0,0-13.71H86.87a6.86,6.86,0,1,0,0,13.71h0V48.63c0,.31-.3.61-.47.92l-82,142A33.32,33.32,0,0,0,0,208.14H0a33.26,33.26,0,0,0,.24,3.77c0,.41.1.82.16,1.23q.19,1.3.49,2.58c.16.71.35,1.4.55,2.09s.37,1.19.58,1.77c.29.82.62,1.62,1,2.41q.35.76.73,1.5c.2.39.36-.05.58.33A32.24,32.24,0,0,0,32.2,240H196.38a32.25,32.25,0,0,0,27.88-16.15c.22-.38.38-.37.58-.76s.5-.56.73-1.06c.36-.79.69-1.6,1-2.42q.32-.88.58-1.77c.21-.7.39-1.39.55-2.1s.36-1.71.49-2.57c.06-.42.12-.83.17-1.24a34.78,34.78,0,0,0,.23-3.76.23.23,0,0,0,0,0A32.9,32.9,0,0,0,224.31,191.6Zm-84.28-25a63.86,63.86,0,0,1-18.49,12.9l-1.48.68.16,1.62A35.68,35.68,0,0,1,110,210.71a35.12,35.12,0,0,1-11.36,7.61,2.69,2.69,0,0,1-3.52-3.53,30.79,30.79,0,0,0,1-21,34.26,34.26,0,0,1-23.63,10,30,30,0,0,1-4.94-.41,2.48,2.48,0,0,1-2-2c-1.68-10,1.88-20.66,9.5-28.54a32.21,32.21,0,0,0-9.19-1.36A30.19,30.19,0,0,0,54,173.73a2.69,2.69,0,0,1-3.52-3.53,35.54,35.54,0,0,1,32.89-21.79c1.21,0,2.44.06,3.66.18l1.62.16.68-1.48a63.94,63.94,0,0,1,12.9-18.5c11.81-11.81,27.53-18.58,43.11-18.58a52.45,52.45,0,0,1,10.17,1,2.67,2.67,0,0,1,2.1,2.1C161.29,131.64,154.55,152.06,140,166.58Z"/><path class="b" d="M70.15,198.67c8.13.76,16.51-2.46,22.83-8.78a2.44,2.44,0,0,1,1.34-.64,31.9,31.9,0,0,0-1.94-3.45l-.59-.9-1.07-.12c-1.41-.16-2.71-.35-3.95-.6a2.68,2.68,0,0,1-2.12-2.11c-.24-1.18-.44-2.47-.6-4L83.93,177l-.91-.59a30.36,30.36,0,0,0-3.47-1.92,2.42,2.42,0,0,1-.64,1.3C72.6,182.15,69.39,190.57,70.15,198.67Z"/><path class="b" d="M152.71,116.11l-1.79-.21a47,47,0,0,0-5.48-.32c-14.22,0-28.58,6.2-39.39,17a58.74,58.74,0,0,0-13.22,20.2,2.67,2.67,0,0,1-2.5,1.71,2.77,2.77,0,0,1-.54-.06,31.18,31.18,0,0,0-6.25-.63,30.44,30.44,0,0,0-21,8.26L58,166.3l6.15-.29c.55,0,1.1,0,1.65,0a37.09,37.09,0,0,1,22.3,7.5,2.67,2.67,0,0,1,1.06,1.95c.05.69.11,1.36.18,2l.2,1.83,1.83.19c.64.07,1.29.13,2,.17a2.68,2.68,0,0,1,2,1.06,36.91,36.91,0,0,1,7.46,24l-.29,6.14,4.23-4.47A30.63,30.63,0,0,0,114.38,179a2.68,2.68,0,0,1,1.65-3,58.51,58.51,0,0,0,20.2-13.21c12.31-12.31,18.55-29.09,16.69-44.88Zm-14.92,32.5a12.44,12.44,0,0,1-17.58,0,12.46,12.46,0,0,1,0-17.59,12.73,12.73,0,0,1,17.59,0,12.43,12.43,0,0,1,0,17.58Z"/><path class="b" d="M129,132.35a7.46,7.46,0,0,0-5.27,12.74,7.65,7.65,0,0,0,10.55,0A7.46,7.46,0,0,0,129,132.35Z"/></g></svg>