<svg xmlns="http://www.w3.org/2000/svg" viewBox="0 0 228.57 240"><defs><style>.a{opacity:0.2;}</style></defs><title>process1</title><g class="a"><path d="M224.31,191.6l-82.12-142c-.18-.31-.47-.61-.47-.92V13.71h0a6.86,6.86,0,1,0,0-13.71H86.87a6.86,6.86,0,1,0,0,13.71h0V48.63c0,.31-.3.61-.47.92l-82,142A33.31,33.31,0,0,0,0,208.14H0a33.26,33.26,0,0,0,.24,3.77c0,.41.1.82.16,1.23q.19,1.3.49,2.58c.16.71.35,1.4.55,2.09s.37,1.19.58,1.77c.29.82.62,1.62,1,2.41q.35.76.73,1.5c.2.39.36-.05.58.33A32.24,32.24,0,0,0,32.2,240H196.37a32.25,32.25,0,0,0,27.88-16.15c.22-.38.38-.37.58-.76s.5-.56.73-1.06c.36-.79.69-1.6,1-2.42q.32-.87.58-1.77c.21-.7.39-1.39.55-2.1s.36-1.71.49-2.57c.06-.41.12-.83.17-1.24a34.79,34.79,0,0,0,.23-3.76.22.22,0,0,0,0,0A32.89,32.89,0,0,0,224.31,191.6Zm-52.73,22.69a6.76,6.76,0,0,1-9.57,0l-21.61-21.6a47.37,47.37,0,1,1,9.82-9.31l21.35,21.34A6.77,6.77,0,0,1,171.58,214.29Z"/><path d="M146.89,154.11a33.76,33.76,0,1,0-33.77,33.74A33.81,33.81,0,0,0,146.89,154.11Z"/></g></svg>