<svg xmlns="http://www.w3.org/2000/svg" viewBox="0 0 228.57 240"><defs><style>.a{opacity:0.2;}</style></defs><title>process2</title><g class="a"><rect x="138.48" y="114.22" width="9.36" height="23.73" transform="translate(-47.23 138.16) rotate(-45)"/><path d="M137.79,135.6l-51,51a2.92,2.92,0,0,1-4.13-4.13l51-51-6.33-6.33-53.7,53.69-1,17.84,17.82-1,53.7-53.7Z"/><path d="M224.31,191.6l-82.12-142c-.18-.31-.47-.61-.47-.92V13.71h0a6.86,6.86,0,1,0,0-13.71H86.87a6.86,6.86,0,1,0,0,13.71h0V48.63c0,.31-.3.61-.47.92l-82,142A33.32,33.32,0,0,0,0,208.14H0a33.27,33.27,0,0,0,.24,3.77c0,.41.1.82.16,1.23.13.87.3,1.73.49,2.58s.35,1.4.55,2.09.37,1.19.58,1.77c.29.82.62,1.62,1,2.41q.35.76.73,1.5c.2.39.36-.05.58.33A32.24,32.24,0,0,0,32.2,240H196.37a32.25,32.25,0,0,0,27.88-16.15c.22-.38.38-.37.58-.76s.5-.56.73-1.06c.36-.79.69-1.6,1-2.42q.32-.87.58-1.77c.21-.7.39-1.39.55-2.1s.36-1.71.49-2.57c.06-.41.12-.83.17-1.24a34.8,34.8,0,0,0,.23-3.76.22.22,0,0,0,0,0A32.9,32.9,0,0,0,224.31,191.6Zm-62.63-58.16L94.1,201A3.22,3.22,0,0,1,92,202L69.16,203.3A3.21,3.21,0,0,1,66,199.91l1.33-22.69a3.17,3.17,0,0,1,.93-2.08l67.58-67.59a3.22,3.22,0,0,1,4.55,0l21.33,21.33a3.22,3.22,0,0,1,0,4.55Z"/></g></svg>