<svg xmlns="http://www.w3.org/2000/svg" viewBox="0 0 228.57 240"><defs><style>.a{opacity:0.2;}</style></defs><title>process3</title><g class="a"><path d="M141.65,145.29l-1.17-2.9a8.08,8.08,0,0,1,1.56-8.8l4.27-4.3L140,123l-4.28,4.26a8.24,8.24,0,0,1-9,1.45l-2.82-1.18a8,8,0,0,1-5-7.31v-5.9h-9.14v5.9a8,8,0,0,1-5.3,7.4l-2.83,1.19c-2.1,1.1-6.55.65-8.76-1.59l-4.24-4.24-6.31,6.31,4.27,4.28a8.1,8.1,0,0,1,1.44,9l-1.15,3a8.22,8.22,0,0,1-7.33,5.29H73.14v6.86h6.36c3.21,0,6.39,3.15,7.42,6.18l1.18,3.34a8.34,8.34,0,0,1-1.55,8.94l-4.28,4.38,6.31,6.37,4.27-4.23a8.18,8.18,0,0,1,9-1.44l2.81,1.18a8,8,0,0,1,5,7.31v4.55h9.14v-4.55a8,8,0,0,1,5.3-7.4l2.82-1.19a8.66,8.66,0,0,1,8.76,1.59L140,187l6.31-6.33L142,176.39a8.1,8.1,0,0,1-1.44-9l1.18-3.72c.87-2.78,4-5.95,7.3-5.95h6.36v-6.86h-6.36A8.23,8.23,0,0,1,141.65,145.29Zm-27.37,27.49A17.82,17.82,0,1,1,132.1,155,17.83,17.83,0,0,1,114.28,172.78Z"/><path d="M114.28,144.68A10.28,10.28,0,1,0,124.56,155,10.3,10.3,0,0,0,114.28,144.68Z"/><path d="M224.31,191.6l-82.12-142c-.18-.31-.47-.61-.47-.92V13.71h0a6.86,6.86,0,1,0,0-13.71H86.87a6.86,6.86,0,1,0,0,13.71h0V48.63c0,.31-.3.61-.47.92l-82,142A33.32,33.32,0,0,0,0,208.14H0a33.29,33.29,0,0,0,.24,3.77c0,.41.1.82.16,1.23q.19,1.3.49,2.58c.16.71.35,1.4.55,2.09s.37,1.19.58,1.77c.29.82.62,1.62,1,2.41q.35.76.73,1.5c.2.39.36-.05.58.33A32.24,32.24,0,0,0,32.2,240H196.37a32.25,32.25,0,0,0,27.88-16.15c.22-.38.38-.37.58-.76s.5-.56.73-1.06c.36-.79.69-1.6,1-2.42q.32-.87.58-1.77c.21-.7.39-1.39.55-2.1s.36-1.71.49-2.57c.06-.42.12-.83.17-1.24a34.8,34.8,0,0,0,.23-3.76.23.23,0,0,0,0,0A32.89,32.89,0,0,0,224.31,191.6Zm-62-31.3a6.3,6.3,0,0,1-6.32,6.56h-6.9l-1.63,3.61,4.8,5.45a6.66,6.66,0,0,1,0,9.49l-7.5,7.51a6.85,6.85,0,0,1-9.42,0l-4.9-4.88-3.65,1.35L126.3,197a6.74,6.74,0,0,1-6.69,6.73l-.75-.34H109c-3.68,0-6.09-3.12-6.09-6.8v-6.89L99,188.1l-5.59,4.82a6.92,6.92,0,0,1-9.49,0l-7.58-7.54a6.67,6.67,0,0,1,0-9.44l4.86-4.87-1.35-3.69-7.08-.4a6.53,6.53,0,0,1-6.49-6.67V149.64c0-3.69,2.64-7.92,6.32-7.92h6.9l1.62-2.9-4.8-5.14a6.2,6.2,0,0,1-1.94-4.55,6.39,6.39,0,0,1,2-4.65l7.53-7.5a6.84,6.84,0,0,1,9.43,0l4.87,4.86,3.68-1.33.41-8c0-3.68,3-7.41,6.68-7.41h10.65c3.69,0,6.11,4.47,6.11,8.15v6.89l3.83,1.63,5.59-4.82a6.93,6.93,0,0,1,9.5,0l7.56,7.53a6.62,6.62,0,0,1,0,9.46l-4.82,4.84,1.35,3.66,7.07.44a6.53,6.53,0,0,1,6.49,6.68Z"/></g></svg>