<svg xmlns="http://www.w3.org/2000/svg" viewBox="0 0 228.57 240"><defs><style>.a{opacity:0.2;}</style></defs><title>process4</title><g class="a"><path d="M224.31,191.6l-82.12-142c-.18-.31-.47-.61-.47-.92V13.71h0a6.86,6.86,0,1,0,0-13.71H86.87a6.86,6.86,0,1,0,0,13.71h0V48.63c0,.31-.3.61-.47.92l-82,142A33.32,33.32,0,0,0,0,208.14H0a33.29,33.29,0,0,0,.24,3.77c0,.41.1.82.16,1.23q.19,1.3.49,2.58c.16.71.35,1.4.55,2.09s.37,1.19.58,1.77c.29.82.62,1.62,1,2.41q.35.76.73,1.5c.2.39.36-.05.58.33A32.25,32.25,0,0,0,32.2,240H196.37a32.25,32.25,0,0,0,27.88-16.15c.22-.38.38-.37.58-.76s.5-.56.73-1.06c.36-.79.69-1.6,1-2.42q.32-.87.58-1.77c.21-.7.39-1.39.55-2.1s.36-1.71.49-2.57c.06-.42.12-.83.17-1.24a34.8,34.8,0,0,0,.23-3.76.22.22,0,0,0,0,0A32.9,32.9,0,0,0,224.31,191.6ZM150.86,140.5v28.57a16.46,16.46,0,0,1-2,7.63,3.51,3.51,0,0,1,1.89,3.1l0,27.15a3.42,3.42,0,0,1-3.53,3.39L93,210.29h0a3.41,3.41,0,0,1-2.48-.89,3.37,3.37,0,0,1-1-2.42l-.06-27.13a3.5,3.5,0,0,1,1-2.48,3.44,3.44,0,0,1,.83-.6c-.2-.41-.44-.82-.6-1.24L79.34,155.62a11.44,11.44,0,0,1-1.62-5.8V130.26a11.24,11.24,0,0,1,11.11-11.4h.32V101.1a11.43,11.43,0,0,1,22.86,0v13.16a9.09,9.09,0,0,1,1.4-.07,11.72,11.72,0,0,1,7.37,2.59,11.54,11.54,0,0,1,13.73,2.08,12,12,0,0,1,4.64-.92,11.69,11.69,0,0,1,11.71,11.41Z"/><rect x="96.53" y="183.37" width="47.16" height="20.09" transform="translate(-0.27 0.17) rotate(-0.08)"/><path d="M99.07,175.66l42.21,0a11.22,11.22,0,0,0,2.72-6.56V129.35c0-2.41-2.41-4.35-4.81-4.35s-4.79,1.93-4.79,4.35a11,11,0,0,0-4.11-.92V126.8a4.58,4.58,0,0,0-9.14,0V128h-2.29v-2.4a4.58,4.58,0,0,0-9.14,0v2.83c-2.29.16-2.29.45-4.57.92V101.1a4.58,4.58,0,0,0-9.14,0v41.85l-2.29-4.72v-8a4.58,4.58,0,0,0-9.14,0v19.56a4.71,4.71,0,0,0,.8,2.23L97.23,172.5A11.88,11.88,0,0,0,99.07,175.66Z"/></g></svg>