<svg xmlns="http://www.w3.org/2000/svg" viewBox="0 0 300 300"><defs><style>.a{fill:#141414;}</style></defs><title>services1</title><path class="a" d="M150,0A150,150,0,1,0,300,150,150,150,0,0,0,150,0Zm0,262.5A112.5,112.5,0,1,1,262.5,150,112.5,112.5,0,0,1,150,262.5Z"/><path class="a" d="M210,138.71h29.27a89.59,89.59,0,0,0-77.27-78v27H138v-27a89.6,89.6,0,0,0-77.28,78H90v21H60.72C65.8,201.71,99,234.2,138,239.28V207.71h24v31.57c39-5.08,72.19-37.57,77.27-79.57H210Zm-15,45.67a13.15,13.15,0,0,1-.09,1.48c0,.16,0,.33-.07.49q-.08.51-.19,1c-.06.28-.14.55-.22.83s-.15.47-.23.7-.25.64-.39,1-.19.39-.29.59-.14-.62-.23-.47c-2.26,3.92-6.45,5.76-11,5.76H117.68c-4.53,0-8.71-1.83-11-5.76-.09-.15-.15.16-.23,0s-.2-.16-.29-.35-.27-.51-.39-.83-.16-.4-.23-.64-.15-.52-.22-.79-.14-.66-.19-1c0-.16,0-.32-.06-.48a13.44,13.44,0,0,1-.09-1.48h0a13,13,0,0,1,1.68-6.51l31.74-55.93c.07-.12-.41-.24-.41-.36V105.71h1.2c-1.5,0-2.73,0-2.73-1.5s1.23-1.5,2.73-1.5H160.8c1.5,0,2.73,0,2.73,1.5s-1.23,1.5-2.73,1.5H162v15.85c0,.12-.48.24-.42.36l32,55.93a12.86,12.86,0,0,1,1.44,6.51Z"/></svg>