<svg xmlns="http://www.w3.org/2000/svg" viewBox="0 0 300 300"><defs><style>.a{opacity:0.1;}.b{fill:#226a85;}</style></defs><title>services2</title><g class="a"><path class="b" d="M150,0A150,150,0,1,0,300,150,150,150,0,0,0,150,0ZM111.63,93.94c.52-4.72,3.52-10,7.87-11.93l62-27.37c.14-.06.28-.23.42-.29L190.4,42.7v0A2.86,2.86,0,0,1,193.77,38l18.16,13.37a2.88,2.88,0,0,1-3.38,4.67l0,.08L200,67.94c0,.15,0,1.65,0,1.8l-3.81,36H114.72C112.38,99.71,111.22,97.61,111.63,93.94ZM106.17,262.5a16.62,16.62,0,1,1,16.62-16.62A16.62,16.62,0,0,1,106.17,262.5Zm87.66,0a16.62,16.62,0,1,1,16.62-16.62A16.62,16.62,0,0,1,193.83,262.5Zm19-36.79H88.35c-2.09,0-4.35-.94-4.35-3V208.42l-1.52-8.32-18.42-85.4H48V98.21c0-2.09-.7-4.5,1.39-4.5H78.85c2.09,0,2.15,2.41,2.15,4.5v16.5H216v51.91c0,2.09-1.33,4.61-3.34,5.19L107.58,201.15c-9.2,2.64-8.75,6.56,2.17,6.56H216v15C216,224.77,214.91,225.71,212.82,225.71Z"/></g></svg>