<svg xmlns="http://www.w3.org/2000/svg" viewBox="0 0 300 300"><defs><style>.a{fill:#141414;}</style></defs><title>services3</title><path class="a" d="M193.82,189.84c.14-.31.27-.63.39-1s.16-.46.23-.7.15-.55.22-.83.14-.67.19-1c0-.16,0-.33.07-.49a13.7,13.7,0,0,0,.09-1.48h0a13,13,0,0,0-1.68-6.51l-31.74-55.93c-.07-.12.41-.24.41-.36V105.71h-1.2c1.5,0,2.73,0,2.73-1.5s-1.23-1.5-2.73-1.5H139.2c-1.5,0-2.73,0-2.73,1.5s1.23,1.5,2.73,1.5H138v15.86c0,.12.48.24.41.36l-32,55.93a12.87,12.87,0,0,0-1.44,6.51h0a13.1,13.1,0,0,0,.09,1.49c0,.16,0,.32.06.49q.08.51.19,1c.06.28.14.55.22.82s.15.47.23.7.24.64.39.95.19.4.29.59.14-.62.23-.47c2.26,3.92,6.45,5.75,11,5.75h64.65c4.53,0,8.71-1.83,11-5.75.09-.15.15.16.23,0S193.73,190,193.82,189.84Z"/><path class="a" d="M150,0A150,150,0,1,0,300,150,150,150,0,0,0,150,0Zm67.5,207.71H82.5c-24.75,0-45-18.75-45-43.5s20.25-43.5,45-43.5h3c4.41-12,19.27-27.74,37-27.74,3.05,0,6,1.06,8.86,1.74a54.89,54.89,0,0,1,99.33,29.19c18.37,5.67,31.82,20.74,31.82,40.91C262.5,189.56,242.25,207.71,217.5,207.71Z"/></svg>